<?xml version="1.0" encoding="UTF-8" standalone="no"?>
<!-- Created with Inkscape (http://www.inkscape.org/) -->

<svg
   width="90"
   height="90"
   viewBox="0 0 23.812499 23.8125"
   version="1.1"
   id="svg1"
   xml:space="preserve"
   inkscape:version="1.4 (86a8ad7, 2024-10-11)"
   sodipodi:docname="google.svg"
   xmlns:inkscape="http://www.inkscape.org/namespaces/inkscape"
   xmlns:sodipodi="http://sodipodi.sourceforge.net/DTD/sodipodi-0.dtd"
   xmlns="http://www.w3.org/2000/svg"
   xmlns:svg="http://www.w3.org/2000/svg"><sodipodi:namedview
     id="namedview1"
     pagecolor="#505050"
     bordercolor="#eeeeee"
     borderopacity="1"
     inkscape:showpageshadow="0"
     inkscape:pageopacity="0"
     inkscape:pagecheckerboard="0"
     inkscape:deskcolor="#505050"
     inkscape:document-units="mm"
     inkscape:zoom="4.157526"
     inkscape:cx="32.591498"
     inkscape:cy="29.705166"
     inkscape:window-width="1920"
     inkscape:window-height="1027"
     inkscape:window-x="-8"
     inkscape:window-y="-8"
     inkscape:window-maximized="1"
     inkscape:current-layer="layer1" /><defs
     id="defs1" /><g
     inkscape:label="Layer 1"
     inkscape:groupmode="layer"
     id="layer1"><g
       id="g1"
       transform="matrix(0.11840567,0,0,0.11840567,-0.21330272,-5.6331783)"><path
         style="fill:#ecf5f8"
         d="m 98.110807,244.82343 c 0.190996,-0.0764 0.419199,-0.067 0.507118,0.0209 0.08792,0.0879 -0.06835,0.15046 -0.347265,0.13897 -0.308225,-0.0127 -0.37092,-0.0754 -0.159853,-0.15985 z m 15.345833,0 c 0.191,-0.0764 0.4192,-0.067 0.50712,0.0209 0.0879,0.0879 -0.0683,0.15046 -0.34727,0.13897 -0.30822,-0.0127 -0.37092,-0.0754 -0.15985,-0.15985 z M 33.832918,213.32031 c -0.329108,-0.41964 -0.31975,-0.429 0.09989,-0.0999 0.254662,0.19972 0.463021,0.40808 0.463021,0.46302 0,0.21776 -0.217272,0.0776 -0.562915,-0.36313 z M 143.40417,194.12138 c 0,-0.0455 0.38695,-0.43249 0.85989,-0.8599 l 0.8599,-0.77711 -0.77711,0.8599 c -0.72437,0.80154 -0.94268,0.98151 -0.94268,0.77711 z m 3.70416,-3.75367 c 0.34178,-0.3638 0.68094,-0.66146 0.7537,-0.66146 0.0728,0 -0.14734,0.29766 -0.48911,0.66146 -0.34178,0.3638 -0.68094,0.66146 -0.7537,0.66146 -0.0728,0 0.14734,-0.29766 0.48911,-0.66146 z m 50.02714,-20.92413 c 0.0127,-0.30823 0.0754,-0.37092 0.15985,-0.15986 0.0764,0.191 0.067,0.4192 -0.0209,0.50712 -0.0879,0.0879 -0.15046,-0.0684 -0.13897,-0.34726 z m 0.55006,-3.28525 c 0,-0.3638 0.06,-0.51263 0.13345,-0.33073 0.0734,0.1819 0.0734,0.47956 0,0.66146 -0.0734,0.1819 -0.13345,0.0331 -0.13345,-0.33073 z m 0.50827,-4.65225 c 0.0127,-0.30823 0.0754,-0.37092 0.15986,-0.15986 0.0764,0.191 0.067,0.4192 -0.0209,0.50712 -0.0879,0.0879 -0.15045,-0.0684 -0.13897,-0.34726 z m 0.31042,-3.94671 c 0.003,-0.58208 0.0571,-0.78905 0.12041,-0.45993 0.0633,0.32912 0.0609,0.80537 -0.005,1.05833 -0.0662,0.25297 -0.118,-0.0163 -0.11507,-0.5984 z m 0.25925,-4.36562 c 0,-0.50932 0.0544,-0.71768 0.121,-0.46302 0.0666,0.25466 0.0666,0.67138 0,0.92604 -0.0666,0.25466 -0.121,0.0463 -0.121,-0.46302 z m 0.005,-5.95313 c 0.003,-0.58208 0.0571,-0.78905 0.1204,-0.45993 0.0633,0.32912 0.0609,0.80537 -0.005,1.05833 -0.0662,0.25297 -0.118,-0.0163 -0.11506,-0.5984 z m -0.26993,-3.83645 c 0,-0.50933 0.0544,-0.71769 0.121,-0.46302 0.0666,0.25466 0.0666,0.67138 0,0.92604 -0.0666,0.25466 -0.121,0.0463 -0.121,-0.46302 z m -0.27438,-3.57188 c 0.005,-0.43656 0.0647,-0.58312 0.13177,-0.32569 0.0671,0.25743 0.0627,0.61462 -0.01,0.79375 -0.0725,0.17913 -0.12737,-0.0315 -0.12197,-0.46806 z m -0.53897,-4.89479 c 0,-0.3638 0.06,-0.51263 0.13345,-0.33073 0.0734,0.1819 0.0734,0.47956 0,0.66146 -0.0734,0.1819 -0.13345,0.0331 -0.13345,-0.33073 z"
         id="path48" /><path
         style="fill:#fcf2e9"
         d="m 9.2813047,159.12483 c 0.012696,-0.30823 0.075391,-0.37092 0.1598524,-0.15986 0.07643,0.191 0.067031,0.4192 -0.020888,0.50712 -0.087919,0.0879 -0.1504528,-0.0684 -0.1389644,-0.34726 z m 39.1583333,-2.91042 c 0.0127,-0.30823 0.07539,-0.37092 0.159852,-0.15985 0.07643,0.19099 0.06703,0.4192 -0.02089,0.50711 -0.08792,0.0879 -0.150452,-0.0683 -0.138964,-0.34726 z m -0.264583,-2.64583 c 0.0127,-0.30823 0.07539,-0.37092 0.159852,-0.15986 0.07643,0.191 0.06703,0.4192 -0.02089,0.50712 -0.08792,0.0879 -0.150453,-0.0684 -0.138964,-0.34726 z m -0.264584,-4.49792 c 0.0127,-0.30823 0.07539,-0.37092 0.159853,-0.15985 0.07643,0.19099 0.06703,0.4192 -0.02089,0.50711 -0.08792,0.0879 -0.150453,-0.0684 -0.138965,-0.34726 z m 0.0584,-2.49149 c 0,-0.80037 0.0496,-1.12779 0.110223,-0.72761 0.06062,0.40018 0.06062,1.05503 0,1.45521 -0.06062,0.40018 -0.110223,0.0728 -0.110223,-0.7276 z m 0.470769,-6.50434 c 0.0127,-0.30823 0.07539,-0.37092 0.159852,-0.15986 0.07643,0.191 0.06703,0.4192 -0.02089,0.50712 -0.08792,0.0879 -0.150452,-0.0684 -0.138964,-0.34726 z m 16.901388,-33.77848 c 1.096424,-1.16818 1.333974,-1.37824 1.333974,-1.17956 0,0.0425 -0.565547,0.608 -1.256771,1.25677 l -1.256771,1.17956 z M 96.78789,90.042176 c 0.190997,-0.07643 0.4192,-0.06703 0.507119,0.02089 0.08792,0.08792 -0.06835,0.150453 -0.347266,0.138964 -0.308225,-0.0127 -0.370919,-0.07539 -0.159853,-0.159852 z m 17.72708,0 c 0.191,-0.07643 0.4192,-0.06703 0.50712,0.02089 0.0879,0.08792 -0.0684,0.150453 -0.34726,0.138964 -0.30823,-0.0127 -0.37092,-0.07539 -0.15986,-0.159852 z M 98.623437,51.418521 c 0.181901,-0.0734 0.479558,-0.0734 0.661459,0 0.181901,0.0734 0.03307,0.133452 -0.330729,0.133452 -0.363803,0 -0.512631,-0.06005 -0.33073,-0.133452 z m 13.631073,-0.0081 c 0.25744,-0.06708 0.61462,-0.06267 0.79375,0.0098 0.17914,0.07247 -0.0315,0.127362 -0.46805,0.121969 -0.43656,-0.0054 -0.58313,-0.06469 -0.3257,-0.131773 z"
         id="path47" /><path
         style="fill:#fcebe8"
         d="m 140.72458,101.93073 c -0.3291,-0.41965 -0.31974,-0.429 0.0999,-0.0999 0.25466,0.19972 0.46302,0.40808 0.46302,0.46302 0,0.21777 -0.21727,0.0776 -0.56292,-0.36312 z m 28.575,-26.458335 c -0.3291,-0.419643 -0.31974,-0.429002 0.0999,-0.09989 0.44073,0.345643 0.58089,0.562915 0.36313,0.562915 -0.0549,0 -0.26331,-0.208359 -0.46303,-0.463021 z"
         id="path46" /><path
         style="fill:#e6f5ea"
         d="m 99.025348,244.82081 c 0.257431,-0.0671 0.614618,-0.0627 0.79375,0.01 0.179131,0.0725 -0.03149,0.12736 -0.468056,0.12197 -0.436563,-0.005 -0.583125,-0.0647 -0.325694,-0.13178 z m 12.959552,9.7e-4 c 0.25466,-0.0665 0.67138,-0.0665 0.92604,0 0.25466,0.0666 0.0463,0.121 -0.46302,0.121 -0.50933,0 -0.71769,-0.0545 -0.46302,-0.121 z m 8.61549,-0.7921 c 0.191,-0.0764 0.4192,-0.067 0.50712,0.0209 0.0879,0.0879 -0.0684,0.15046 -0.34727,0.13897 -0.30822,-0.0127 -0.37092,-0.0754 -0.15985,-0.15985 z m 3.43958,-0.52917 c 0.191,-0.0764 0.4192,-0.067 0.50712,0.0209 0.0879,0.0879 -0.0683,0.15045 -0.34726,0.13896 -0.30823,-0.0127 -0.37092,-0.0754 -0.15986,-0.15985 z m -84.901662,-24.88853 -0.641433,-0.72761 0.727604,0.64144 c 0.680056,0.59951 0.848939,0.81377 0.641433,0.81377 -0.04739,0 -0.374816,-0.32742 -0.727604,-0.7276 z m -4.233333,-4.23333 -0.641433,-0.72761 0.727604,0.64143 c 0.680055,0.59952 0.848939,0.81378 0.641433,0.81378 -0.04739,0 -0.374816,-0.32742 -0.727604,-0.7276 z m -3.982474,-4.49792 c -0.329108,-0.41965 -0.319749,-0.429 0.0999,-0.0999 0.440729,0.34565 0.580887,0.56292 0.363126,0.56292 -0.05494,0 -0.263302,-0.20836 -0.463021,-0.46302 z m 34.421939,-19.84375 -1.712148,-1.78594 1.785937,1.71215 c 0.982266,0.94168 1.785938,1.74535 1.785938,1.78594 0,0.19473 -0.269411,-0.0533 -1.859727,-1.71215 z"
         id="path45" /><path
         style="fill:#fdf0d3"
         d="m 8.7926339,152.13542 c 0,-0.50933 0.05445,-0.71769 0.121,-0.46302 0.06655,0.25466 0.06655,0.67138 0,0.92604 -0.06655,0.25466 -0.121,0.0463 -0.121,-0.46302 z M 47.93136,151.34167 c 0,-0.36381 0.06005,-0.51263 0.133452,-0.33073 0.0734,0.1819 0.0734,0.47955 0,0.66146 -0.0734,0.1819 -0.133452,0.0331 -0.133452,-0.33073 z m -0.02089,-6.50434 c 0.0127,-0.30823 0.07539,-0.37092 0.159853,-0.15986 0.07643,0.191 0.06703,0.4192 -0.02089,0.50712 -0.08792,0.0879 -0.150453,-0.0683 -0.138965,-0.34726 z M 8.7828301,144.06562 c 0.00539,-0.43656 0.06469,-0.58312 0.1317736,-0.32569 0.067083,0.25743 0.062672,0.61462 -0.0098,0.79375 -0.072475,0.17913 -0.1273619,-0.0315 -0.1219697,-0.46806 z m 40.1859749,-7.43038 c 0.01269,-0.30822 0.07539,-0.37092 0.159852,-0.15985 0.07643,0.191 0.06703,0.4192 -0.02089,0.50712 -0.08792,0.0879 -0.150453,-0.0683 -0.138964,-0.34727 z"
         id="path44" /><path
         style="fill:#fbdbd8"
         d="m 142.74458,103.7197 c -0.0927,-0.14998 0.0135,-0.19434 0.24897,-0.10399 0.45837,0.1759 0.54223,0.36554 0.16165,0.36554 -0.13693,0 -0.32171,-0.1177 -0.41062,-0.26155 z M 105.10573,89.239657 c 0.40018,-0.06062 1.05503,-0.06062 1.45521,0 0.40018,0.06062 0.0728,0.110223 -0.72761,0.110223 -0.80036,0 -1.12778,-0.0496 -0.7276,-0.110223 z M 35.454167,81.359375 c 0.341774,-0.363802 0.680939,-0.661459 0.753699,-0.661459 0.07276,0 -0.147342,0.297657 -0.489116,0.661459 -0.341774,0.363802 -0.680939,0.661458 -0.7537,0.661458 -0.07276,0 0.147342,-0.297656 0.489117,-0.661458 z m 3.439583,-3.439584 c 0.341774,-0.363802 0.680939,-0.661458 0.753699,-0.661458 0.07276,0 -0.147341,0.297656 -0.489116,0.661458 -0.341774,0.363802 -0.680939,0.661459 -0.753699,0.661459 -0.07276,0 0.147342,-0.297657 0.489116,-0.661459 z M 96.114931,51.674979 c 0.257431,-0.06708 0.614619,-0.06267 0.79375,0.0098 0.179132,0.07248 -0.03149,0.127362 -0.468056,0.12197 -0.436563,-0.0054 -0.583125,-0.06469 -0.325694,-0.131774 z m 18.785419,0 c 0.25743,-0.06708 0.61462,-0.06267 0.79375,0.0098 0.17913,0.07248 -0.0315,0.127362 -0.46806,0.12197 -0.43656,-0.0054 -0.58312,-0.06469 -0.32569,-0.131774 z"
         id="path43" /><path
         style="fill:#d3e4f7"
         d="m 169.8625,221.62094 c 0,-0.0549 0.20836,-0.2633 0.46302,-0.46302 0.41964,-0.32911 0.429,-0.31975 0.0999,0.0999 -0.34565,0.44073 -0.56292,0.58089 -0.56292,0.36313 z m 1.05833,-1.05834 c 0,-0.0549 0.20836,-0.2633 0.46302,-0.46302 0.41965,-0.3291 0.42901,-0.31975 0.0999,0.0999 -0.34564,0.44073 -0.56292,0.58089 -0.56292,0.36312 z m -52.1689,-52.75058 c 7.3235,-0.0391 19.22975,-0.0391 26.45833,3e-5 7.22858,0.0391 1.23661,0.0711 -13.31547,0.0711 -14.55208,-1e-5 -20.46637,-0.032 -13.14286,-0.0711 z m 78.91271,-2.60178 c 0.0127,-0.30822 0.0754,-0.37092 0.15985,-0.15985 0.0764,0.191 0.067,0.4192 -0.0209,0.50712 -0.0879,0.0879 -0.15045,-0.0684 -0.13896,-0.34727 z m 0.26458,-2.38125 c 0.0127,-0.30822 0.0754,-0.37092 0.15985,-0.15985 0.0764,0.191 0.067,0.4192 -0.0209,0.50712 -0.0879,0.0879 -0.15046,-0.0684 -0.13897,-0.34727 z m 0.575,-7.1217 c 0.003,-0.58208 0.0571,-0.78905 0.12041,-0.45993 0.0633,0.32911 0.0609,0.80536 -0.005,1.05833 -0.0662,0.25296 -0.118,-0.0163 -0.11507,-0.5984 z m -0.005,-10.71562 c 0,-0.50933 0.0544,-0.71769 0.121,-0.46302 0.0666,0.25466 0.0666,0.67138 0,0.92604 -0.0666,0.25466 -0.121,0.0463 -0.121,-0.46302 z m -0.56966,-6.76893 c 0.0127,-0.30822 0.0754,-0.37092 0.15985,-0.15985 0.0764,0.191 0.067,0.4192 -0.0209,0.50712 -0.0879,0.0879 -0.15046,-0.0684 -0.13897,-0.34727 z m -0.26458,-2.38125 c 0.0127,-0.30822 0.0754,-0.37092 0.15985,-0.15985 0.0764,0.191 0.067,0.4192 -0.0209,0.50712 -0.0879,0.0879 -0.15045,-0.0684 -0.13896,-0.34727 z"
         id="path42" /><path
         style="fill:#c3dbfe"
         d="m 198.45839,146.16024 c 0.0127,-0.30822 0.0754,-0.37092 0.15985,-0.15985 0.0764,0.191 0.067,0.4192 -0.0209,0.50712 -0.0879,0.0879 -0.15045,-0.0684 -0.13896,-0.34727 z m -0.26459,-5.02708 c 0.0127,-0.30823 0.0754,-0.37092 0.15986,-0.15985 0.0764,0.19099 0.067,0.4192 -0.0209,0.50711 -0.0879,0.0879 -0.15045,-0.0684 -0.13897,-0.34726 z"
         id="path41" /><path
         style="fill:#fdebb3"
         d="m 9.545888,160.71233 c 0.012696,-0.30823 0.075391,-0.37092 0.1598525,-0.15986 0.07643,0.191 0.067031,0.4192 -0.020888,0.50712 -0.087919,0.0879 -0.1504528,-0.0683 -0.1389645,-0.34726 z M 9.0376095,155.575 c 0,-0.3638 0.060054,-0.51263 0.1334521,-0.33073 0.073399,0.1819 0.073399,0.47956 0,0.66146 -0.073399,0.1819 -0.1334521,0.0331 -0.1334521,-0.33073 z m 39.1374455,-0.68351 c 0.0127,-0.30822 0.07539,-0.37092 0.159852,-0.15985 0.07643,0.191 0.06703,0.4192 -0.02089,0.50712 -0.08792,0.0879 -0.150453,-0.0684 -0.138964,-0.34727 z M 8.8340511,148.03437 c 4.629e-4,-1.89177 0.042606,-2.63096 0.093651,-1.64264 0.051045,0.98832 0.050667,2.53613 -8.415e-4,3.43959 -0.051508,0.90345 -0.093273,0.0948 -0.092809,-1.79695 z m 39.3410039,-6.63663 c 0.0127,-0.30822 0.07539,-0.37092 0.159852,-0.15985 0.07643,0.191 0.06703,0.4192 -0.02089,0.50712 -0.08792,0.0879 -0.150453,-0.0684 -0.138964,-0.34727 z M 9.0376095,140.75833 c 0,-0.3638 0.060054,-0.51263 0.1334521,-0.33073 0.073399,0.1819 0.073399,0.47956 0,0.66146 -0.073399,0.1819 -0.1334521,0.0331 -0.1334521,-0.33073 z m 0.5082785,-5.18142 c 0.012696,-0.30823 0.075391,-0.37092 0.1598525,-0.15985 0.07643,0.19099 0.067031,0.4192 -0.020888,0.50711 -0.087919,0.0879 -0.1504528,-0.0684 -0.1389645,-0.34726 z"
         id="path40" /><path
         style="fill:#cbebd4"
         d="m 100.22747,244.82343 c 0.191,-0.0764 0.4192,-0.067 0.50712,0.0209 0.0879,0.0879 -0.0683,0.15046 -0.34726,0.13897 -0.30823,-0.0127 -0.37092,-0.0754 -0.15986,-0.15985 z m 10.84792,0 c 0.191,-0.0764 0.4192,-0.067 0.50712,0.0209 0.0879,0.0879 -0.0683,0.15046 -0.34727,0.13897 -0.30822,-0.0127 -0.37092,-0.0754 -0.15985,-0.15985 z m -14.552083,-0.26459 c 0.190996,-0.0764 0.419199,-0.067 0.507118,0.0209 0.08792,0.0879 -0.06835,0.15045 -0.347265,0.13896 -0.308225,-0.0127 -0.37092,-0.0754 -0.159853,-0.15985 z m 18.785413,0 c 0.191,-0.0764 0.4192,-0.067 0.50712,0.0209 0.0879,0.0879 -0.0683,0.15045 -0.34726,0.13896 -0.30823,-0.0127 -0.37092,-0.0754 -0.15986,-0.15985 z m 9.78959,-1.32291 c 0.19099,-0.0764 0.4192,-0.067 0.50712,0.0209 0.0879,0.0879 -0.0684,0.15046 -0.34727,0.13897 -0.30822,-0.0127 -0.37092,-0.0754 -0.15985,-0.15985 z M 41.505834,220.72865 c -0.329107,-0.41965 -0.319749,-0.42901 0.09989,-0.0999 0.440729,0.34564 0.580887,0.56292 0.363126,0.56292 -0.05494,0 -0.263301,-0.20836 -0.463021,-0.46302 z m -4.473206,-4.23334 -1.44617,-1.52135 1.521354,1.44617 c 1.413387,1.34354 1.642558,1.59654 1.44617,1.59654 -0.04135,0 -0.72596,-0.68461 -1.521354,-1.52136 z m -4.258044,-4.49791 c -0.329107,-0.41965 -0.319749,-0.42901 0.0999,-0.0999 0.254661,0.19972 0.463021,0.40808 0.463021,0.46302 0,0.21776 -0.217272,0.0776 -0.562916,-0.36312 z m 72.468176,-5.0204 c 0.47555,-0.0589 1.18992,-0.0577 1.5875,0.003 0.39758,0.0604 0.008,0.10855 -0.86464,0.10706 -0.87312,-0.001 -1.19841,-0.0509 -0.72286,-0.10976 z M 63.201668,187.92031 c -0.329108,-0.41964 -0.31975,-0.429 0.09989,-0.0999 0.254662,0.19972 0.463021,0.40808 0.463021,0.46302 0,0.21776 -0.217272,0.0776 -0.562915,-0.36313 z"
         id="path39" /><path
         style="fill:#fcc7c2"
         d="m 156.76562,90.222916 c 7.4205,-7.421562 13.55134,-13.49375 13.6241,-13.49375 0.0728,0 -5.93902,6.072188 -13.35951,13.49375 -7.42049,7.421563 -13.55134,13.493754 -13.6241,13.493754 -0.0728,0 5.93902,-6.072191 13.35951,-13.493754 z m -53.24236,-0.977104 c 0.25744,-0.06708 0.61462,-0.06267 0.79375,0.0098 0.17914,0.07248 -0.0315,0.127362 -0.46805,0.12197 -0.43656,-0.0054 -0.58313,-0.06469 -0.3257,-0.131774 z m 3.96875,0 c 0.25744,-0.06708 0.61462,-0.06267 0.79375,0.0098 0.17914,0.07248 -0.0315,0.127362 -0.46805,0.12197 -0.43656,-0.0054 -0.58313,-0.06469 -0.3257,-0.131774 z M 36.247917,80.615126 c 0,-0.04554 0.386953,-0.432488 0.859895,-0.859896 l 0.859896,-0.777105 -0.777105,0.859895 c -0.724371,0.801544 -0.942686,0.981512 -0.942686,0.777106 z"
         id="path38" /><path
         style="fill:#aecdfd"
         d="m 144.19792,193.5751 c 0,-0.0549 0.20836,-0.2633 0.46302,-0.46302 0.41964,-0.3291 0.429,-0.31975 0.0999,0.0999 -0.34564,0.44073 -0.56291,0.58089 -0.56291,0.36312 z m 2.38125,-2.41364 c 0.34177,-0.3638 0.68094,-0.66146 0.7537,-0.66146 0.0728,0 -0.14735,0.29766 -0.48912,0.66146 -0.34177,0.3638 -0.68094,0.66146 -0.7537,0.66146 -0.0728,0 0.14734,-0.29766 0.48912,-0.66146 z m 51.61463,-32.03663 c 0.0127,-0.30823 0.0754,-0.37092 0.15986,-0.15986 0.0764,0.191 0.067,0.4192 -0.0209,0.50712 -0.0879,0.0879 -0.15045,-0.0684 -0.13897,-0.34726 z m 0.30508,-5.6665 c 0,-0.50932 0.0544,-0.71768 0.121,-0.46302 0.0666,0.25466 0.0666,0.67138 0,0.92604 -0.0666,0.25467 -0.121,0.0463 -0.121,-0.46302 z m -0.01,-6.21771 c 0.005,-0.43656 0.0647,-0.58312 0.13177,-0.32569 0.0671,0.25743 0.0627,0.61462 -0.01,0.79375 -0.0725,0.17913 -0.12736,-0.0315 -0.12197,-0.46806 z m -0.29528,-5.31371 c 0.0127,-0.30823 0.0754,-0.37092 0.15986,-0.15985 0.0764,0.19099 0.067,0.4192 -0.0209,0.50711 -0.0879,0.0879 -0.15045,-0.0684 -0.13897,-0.34726 z"
         id="path37" /><path
         style="fill:#fde48e"
         d="m 9.0167214,141.66233 c 0.012696,-0.30823 0.07539,-0.37092 0.1598524,-0.15986 0.07643,0.191 0.067031,0.4192 -0.020888,0.50712 -0.087919,0.0879 -0.1504527,-0.0684 -0.1389644,-0.34726 z"
         id="path36" /><path
         style="fill:#fbb9b3"
         d="m 100.75664,51.413009 c 0.191,-0.07643 0.4192,-0.06703 0.50712,0.02089 0.0879,0.08792 -0.0684,0.150453 -0.34727,0.138964 -0.30822,-0.0127 -0.37092,-0.07539 -0.15985,-0.159852 z"
         id="path35" /><path
         style="fill:#b8e5c4"
         d="m 101.02122,244.82343 c 0.191,-0.0764 0.4192,-0.067 0.50712,0.0209 0.0879,0.0879 -0.0683,0.15046 -0.34726,0.13897 -0.30823,-0.0127 -0.37092,-0.0754 -0.15986,-0.15985 z m 9.26042,0 c 0.191,-0.0764 0.4192,-0.067 0.50712,0.0209 0.0879,0.0879 -0.0683,0.15046 -0.34727,0.13897 -0.30822,-0.0127 -0.37092,-0.0754 -0.15985,-0.15985 z m -12.964583,-0.26459 c 0.190996,-0.0764 0.419199,-0.067 0.507118,0.0209 0.08792,0.0879 -0.06835,0.15045 -0.347265,0.13896 -0.308225,-0.0127 -0.37092,-0.0754 -0.159853,-0.15985 z m 6.206203,-37.57344 c 0.25744,-0.0671 0.61462,-0.0627 0.79375,0.01 0.17914,0.0725 -0.0315,0.12736 -0.46805,0.12197 -0.43656,-0.005 -0.58313,-0.0647 -0.3257,-0.13177 z m 4.09601,0.008 c 0.1819,-0.0734 0.47956,-0.0734 0.66146,0 0.1819,0.0734 0.0331,0.13345 -0.33073,0.13345 -0.3638,0 -0.51263,-0.06 -0.33073,-0.13345 z"
         id="path34" /><path
         style="fill:#9ac2fe"
         d="m 128.38906,129.97658 c 12.47841,-0.038 32.89763,-0.038 45.37604,0 12.47842,0.038 2.26881,0.0691 -22.68802,0.0691 -24.95682,0 -35.16643,-0.0311 -22.68802,-0.0691 z"
         id="path33" /><path
         style="fill:#faada6"
         d="m 109.75247,51.413009 c 0.191,-0.07643 0.4192,-0.06703 0.50712,0.02089 0.0879,0.08792 -0.0684,0.150453 -0.34726,0.138964 -0.30823,-0.0127 -0.37092,-0.07539 -0.15986,-0.159852 z"
         id="path32" /><path
         style="fill:#98bcf8"
         d="m 105.6941,148.82812 c -3e-5,-10.33197 0.0328,-14.5972 0.073,-9.47828 0.0401,5.11892 0.0402,13.57236 4e-5,18.78542 -0.0401,5.21305 -0.073,1.02484 -0.073,-9.30714 z m 92.79498,2.91042 c 0.005,-0.43656 0.0647,-0.58312 0.13177,-0.32569 0.0671,0.25743 0.0627,0.61462 -0.01,0.79375 -0.0725,0.17913 -0.12736,-0.0315 -0.12197,-0.46806 z m -0.0307,-2.93246 c 0.0127,-0.30823 0.0754,-0.37092 0.15985,-0.15986 0.0764,0.191 0.067,0.4192 -0.0209,0.50712 -0.0879,0.0879 -0.15045,-0.0683 -0.13896,-0.34726 z"
         id="path31" /><path
         style="fill:#88b4fb"
         d="m 174.09583,217.12302 c 0,-0.0549 0.20836,-0.2633 0.46302,-0.46302 0.41965,-0.32911 0.42901,-0.31975 0.0999,0.0999 -0.34564,0.44072 -0.56292,0.58088 -0.56292,0.36312 z m 24.09797,-59.32111 c 0.0127,-0.30823 0.0754,-0.37092 0.15986,-0.15985 0.0764,0.19099 0.067,0.4192 -0.0209,0.50711 -0.0879,0.0879 -0.15045,-0.0684 -0.13897,-0.34726 z m 0.31042,-7.65087 c 0.003,-0.58208 0.0571,-0.78905 0.12041,-0.45993 0.0633,0.32911 0.0609,0.80536 -0.005,1.05833 -0.0662,0.25296 -0.118,-0.0163 -0.11507,-0.5984 z m -0.31042,-7.1658 c 0.0127,-0.30822 0.0754,-0.37092 0.15986,-0.15985 0.0764,0.191 0.067,0.4192 -0.0209,0.50712 -0.0879,0.0879 -0.15045,-0.0684 -0.13897,-0.34727 z"
         id="path30" /><path
         style="fill:#fdd752"
         d="m 9.8104714,161.50608 c 0.012696,-0.30823 0.07539,-0.37092 0.1598524,-0.15986 0.07643,0.191 0.06703,0.4192 -0.020888,0.50712 -0.087919,0.0879 -0.1504527,-0.0684 -0.1389644,-0.34726 z m 38.0999996,-7.67292 c 0.0127,-0.30823 0.07539,-0.37092 0.159853,-0.15985 0.07643,0.19099 0.06703,0.4192 -0.02089,0.50711 -0.08792,0.0879 -0.150453,-0.0684 -0.138965,-0.34726 z M 9.0572173,152.66458 c 0,-0.50932 0.05445,-0.71768 0.1209999,-0.46302 0.06655,0.25466 0.06655,0.67138 0,0.92604 -0.06655,0.25467 -0.1209999,0.0463 -0.1209999,-0.46302 z m 38.6567367,-4.49791 c 0,-1.09141 0.0467,-1.53789 0.103786,-0.99219 0.05708,0.5457 0.05708,1.43867 0,1.98437 -0.05708,0.54571 -0.103786,0.0992 -0.103786,-0.99218 z M 9.0474134,143.53646 c 0.00539,-0.43656 0.06469,-0.58313 0.1317736,-0.3257 0.067083,0.25744 0.062672,0.61462 -0.0098,0.79375 -0.072475,0.17914 -0.1273618,-0.0315 -0.1219697,-0.46805 z m 0.763058,-8.7533 c 0.012696,-0.30823 0.07539,-0.37092 0.1598524,-0.15985 0.07643,0.19099 0.06703,0.4192 -0.020888,0.50711 -0.087919,0.0879 -0.1504527,-0.0683 -0.1389644,-0.34726 z"
         id="path29" /><path
         style="fill:#f9958c"
         d="m 65.341026,106.03177 c 1.096424,-1.16819 1.333974,-1.37824 1.333974,-1.17957 0,0.0425 -0.565547,0.60801 -1.256771,1.25677 l -1.256771,1.17957 z M 98.904557,89.513009 c 0.190996,-0.07643 0.419199,-0.06703 0.507118,0.02089 0.08792,0.08792 -0.06835,0.150453 -0.347265,0.138964 -0.308225,-0.01269 -0.37092,-0.07539 -0.159853,-0.159852 z m 13.493753,0 c 0.19099,-0.07643 0.4192,-0.06703 0.50712,0.02089 0.0879,0.08792 -0.0684,0.150453 -0.34727,0.138964 -0.30822,-0.01269 -0.37092,-0.07539 -0.15985,-0.159852 z m -10.84792,-0.264583 c 0.191,-0.07643 0.4192,-0.06703 0.50712,0.02089 0.0879,0.08792 -0.0683,0.150453 -0.34727,0.138964 -0.30822,-0.0127 -0.37092,-0.07539 -0.15985,-0.159852 z M 34.13125,82.979271 c 0,-0.05494 0.208359,-0.263301 0.463021,-0.46302 0.419644,-0.329108 0.429002,-0.319749 0.0999,0.09989 -0.345644,0.44073 -0.562916,0.580888 -0.562916,0.363126 z M 94.919271,51.947688 c 0.181901,-0.0734 0.479557,-0.0734 0.661458,0 0.181901,0.0734 0.03307,0.133452 -0.330729,0.133452 -0.363802,0 -0.51263,-0.06005 -0.330729,-0.133452 z m 21.166669,0 c 0.1819,-0.0734 0.47955,-0.0734 0.66146,0 0.1819,0.0734 0.0331,0.133452 -0.33073,0.133452 -0.36381,0 -0.51263,-0.06005 -0.33073,-0.133452 z M 98.110807,51.677592 c 0.190996,-0.07643 0.419199,-0.06703 0.507118,0.02089 0.08792,0.08792 -0.06835,0.150452 -0.347265,0.138964 -0.308225,-0.0127 -0.37092,-0.07539 -0.159853,-0.159853 z m 3.968753,-0.264583 c 0.19099,-0.07643 0.4192,-0.06703 0.50712,0.02089 0.0879,0.08792 -0.0684,0.150453 -0.34727,0.138964 -0.30822,-0.0127 -0.37092,-0.07539 -0.15985,-0.159852 z m 6.87916,0 c 0.191,-0.07643 0.4192,-0.06703 0.50712,0.02089 0.0879,0.08792 -0.0683,0.150453 -0.34726,0.138964 -0.30823,-0.0127 -0.37092,-0.07539 -0.15986,-0.159852 z"
         id="path28" /><path
         style="fill:#75a7f9"
         d="m 170.52396,220.6625 c 0.26339,-0.29104 0.53842,-0.52917 0.61118,-0.52917 0.0728,0 -0.0832,0.23813 -0.3466,0.52917 -0.26339,0.29104 -0.53842,0.52917 -0.61118,0.52917 -0.0728,0 0.0832,-0.23813 0.3466,-0.52917 z m 2.91041,-2.91042 c 0.26339,-0.29104 0.53843,-0.52916 0.61119,-0.52916 0.0728,0 -0.0832,0.23812 -0.3466,0.52916 -0.26339,0.29104 -0.53842,0.52917 -0.61118,0.52917 -0.0728,0 0.0832,-0.23813 0.34659,-0.52917 z"
         id="path27" /><path
         style="fill:#95d6a6"
         d="m 102.72951,244.82081 c 0.25744,-0.0671 0.61462,-0.0627 0.79375,0.01 0.17914,0.0725 -0.0315,0.12736 -0.46805,0.12197 -0.43656,-0.005 -0.58313,-0.0647 -0.3257,-0.13178 z m 5.55625,0 c 0.25744,-0.0671 0.61462,-0.0627 0.79375,0.01 0.17914,0.0725 -0.0315,0.12736 -0.46805,0.12197 -0.43656,-0.005 -0.58313,-0.0647 -0.3257,-0.13178 z m 8.61046,-0.52655 c 0.191,-0.0764 0.4192,-0.067 0.50712,0.0209 0.0879,0.0879 -0.0683,0.15045 -0.34726,0.13896 -0.30823,-0.0127 -0.37092,-0.0754 -0.15986,-0.15985 z m 52.17253,-22.14416 c 0,-0.0549 0.20836,-0.2633 0.46302,-0.46302 0.41964,-0.3291 0.429,-0.31975 0.0999,0.0999 -0.34565,0.44073 -0.56292,0.58089 -0.56292,0.36312 z m -59.84544,-15.16209 c 0.19099,-0.0764 0.4192,-0.067 0.50712,0.0209 0.0879,0.0879 -0.0684,0.15045 -0.34727,0.13896 -0.30822,-0.0127 -0.37092,-0.0754 -0.15985,-0.15985 z m -10.05417,-0.26458 c 0.190997,-0.0764 0.4192,-0.067 0.507119,0.0209 0.08792,0.0879 -0.06835,0.15046 -0.347266,0.13897 -0.308225,-0.0127 -0.370919,-0.0754 -0.159853,-0.15985 z m -34.101665,-16.68645 -0.641433,-0.72761 0.727604,0.64144 c 0.680055,0.59951 0.848939,0.81377 0.641433,0.81377 -0.04739,0 -0.374816,-0.32742 -0.727604,-0.7276 z"
         id="path26" /><path
         style="fill:#fecc2f"
         d="m 9.3119967,156.23646 c 0.00539,-0.43656 0.06469,-0.58313 0.1317736,-0.3257 0.067083,0.25744 0.062672,0.61462 -0.0098,0.79375 -0.072476,0.17914 -0.1273619,-0.0315 -0.1219698,-0.46805 z M 9.0678962,150.8125 c 0,-0.65484 0.051598,-0.92273 0.1146622,-0.59531 0.063064,0.32742 0.063064,0.8632 0,1.19062 -0.063064,0.32742 -0.1146622,0.0595 -0.1146622,-0.59531 z M 47.67658,150.68021 c 0.0054,-0.43656 0.06469,-0.58313 0.131774,-0.3257 0.06708,0.25744 0.06267,0.61462 -0.0098,0.79375 -0.07248,0.17914 -0.127362,-0.0315 -0.12197,-0.46805 z M 9.0715078,145.38854 c 0.00199,-0.7276 0.05337,-0.99386 0.1141854,-0.59167 0.060816,0.40218 0.059191,0.99749 -0.00361,1.32291 -0.062802,0.32542 -0.1125603,-0.004 -0.1105739,-0.73124 z m 38.6050722,0.26458 c 0.0054,-0.43656 0.06469,-0.58312 0.131774,-0.32569 0.06708,0.25743 0.06267,0.61462 -0.0098,0.79375 -0.07248,0.17913 -0.127362,-0.0315 -0.12197,-0.46806 z M 9.3119967,140.09687 c 0.00539,-0.43656 0.06469,-0.58312 0.1317736,-0.32569 0.067083,0.25743 0.062672,0.61462 -0.0098,0.79375 -0.072476,0.17913 -0.1273619,-0.0315 -0.1219698,-0.46806 z"
         id="path25" /><path
         style="fill:#f7847b"
         d="m 63.5,107.8501 c 0,-0.0549 0.208359,-0.2633 0.463021,-0.46302 0.419644,-0.3291 0.429002,-0.31975 0.0999,0.0999 C 63.717272,107.92771 63.5,108.06787 63.5,107.8501 Z M 39.422917,77.687605 c 0,-0.05494 0.208359,-0.263302 0.46302,-0.463021 0.419644,-0.329107 0.429003,-0.319749 0.0999,0.0999 -0.345643,0.440729 -0.562915,0.580887 -0.562915,0.363126 z M 104.45314,51.39838 c 0.76886,-0.05362 1.95949,-0.05305 2.64583,0.0013 0.68635,0.0543 0.0573,0.09817 -1.39793,0.09748 -1.45521,-6.89e-4 -2.01676,-0.04512 -1.2479,-0.09874 z"
         id="path24" /><path
         style="fill:#639bf7"
         d="m 171.97917,219.20729 c 0.49365,-0.50932 0.95708,-0.92604 1.02984,-0.92604 0.0728,0 -0.2716,0.41672 -0.76526,0.92604 -0.49366,0.50932 -0.95709,0.92604 -1.02985,0.92604 -0.0728,0 0.27161,-0.41672 0.76527,-0.92604 z m -26.19375,-26.9551 c 0,-0.0549 0.20836,-0.2633 0.46302,-0.46302 0.41964,-0.32911 0.429,-0.31975 0.0999,0.0999 -0.34564,0.44073 -0.56291,0.58089 -0.56291,0.36313 z m 52.1438,-31.80445 c 0.0127,-0.30822 0.0754,-0.37092 0.15985,-0.15985 0.0764,0.191 0.067,0.4192 -0.0209,0.50712 -0.0879,0.0879 -0.15046,-0.0683 -0.13897,-0.34727 z m 0.26458,-16.40416 c 0.0127,-0.30823 0.0754,-0.37092 0.15986,-0.15986 0.0764,0.191 0.067,0.4192 -0.0209,0.50712 -0.0879,0.0879 -0.15045,-0.0684 -0.13897,-0.34726 z m -0.26458,-3.43959 c 0.0127,-0.30822 0.0754,-0.37092 0.15985,-0.15985 0.0764,0.191 0.067,0.4192 -0.0209,0.50712 -0.0879,0.0879 -0.15046,-0.0683 -0.13897,-0.34727 z"
         id="path23" /><path
         style="fill:#5a97fb"
         d="m 144.4625,193.5751 c 0,-0.0549 0.20836,-0.2633 0.46302,-0.46302 0.41964,-0.3291 0.429,-0.31975 0.0999,0.0999 -0.34565,0.44073 -0.56292,0.58089 -0.56292,0.36312 z m 2.51354,-2.54593 c 0.26339,-0.29105 0.53842,-0.52917 0.61118,-0.52917 0.0728,0 -0.0832,0.23812 -0.3466,0.52917 -0.26338,0.29104 -0.53842,0.52916 -0.61118,0.52916 -0.0728,0 0.0832,-0.23812 0.3466,-0.52916 z m -27.84739,-23.48172 c 7.23966,-0.0391 19.08638,-0.0391 26.32604,0 7.23966,0.0391 1.3163,0.0711 -13.16302,0.0711 -14.47933,0 -20.40269,-0.032 -13.16302,-0.0711 z m 78.80057,-7.89346 c 0.0127,-0.30822 0.0754,-0.37092 0.15985,-0.15985 0.0764,0.191 0.067,0.4192 -0.0209,0.50712 -0.0879,0.0879 -0.15046,-0.0684 -0.13897,-0.34727 z m 0.26458,-3.43958 c 0.0127,-0.30823 0.0754,-0.37092 0.15986,-0.15985 0.0764,0.19099 0.067,0.4192 -0.0209,0.50711 -0.0879,0.0879 -0.15045,-0.0683 -0.13897,-0.34726 z"
         id="path22" /><path
         style="fill:#84cf98"
         d="m 104.70885,244.81044 c 0.61847,-0.0557 1.6305,-0.0557 2.24896,0 0.61847,0.0557 0.11245,0.10128 -1.12448,0.10128 -1.23692,0 -1.74294,-0.0456 -1.12448,-0.10128 z M 66.112084,191.09531 c -0.329107,-0.41964 -0.319749,-0.429 0.0999,-0.0999 0.440729,0.34564 0.580887,0.56291 0.363126,0.56291 -0.05494,0 -0.263301,-0.20836 -0.463021,-0.46302 z"
         id="path21" /><path
         style="fill:#fdc315"
         d="m 10.095943,162.45417 c 0,-0.36381 0.06005,-0.51263 0.133452,-0.33073 0.0734,0.1819 0.0734,0.47955 0,0.66146 -0.0734,0.1819 -0.133452,0.0331 -0.133452,-0.33073 z m -0.5291668,-4.23334 c 0,-0.3638 0.060053,-0.51263 0.1334521,-0.33073 0.073399,0.1819 0.073399,0.47956 0,0.66146 -0.073399,0.1819 -0.1334521,0.0331 -0.1334521,-0.33073 z m 38.6082788,-1.47725 c 0.0127,-0.30823 0.07539,-0.37092 0.159852,-0.15986 0.07643,0.191 0.06703,0.4192 -0.02089,0.50712 -0.08792,0.0879 -0.150453,-0.0683 -0.138964,-0.34726 z M 9.3021929,155.04583 c 0,-0.3638 0.060053,-0.51263 0.1334521,-0.33073 0.073399,0.1819 0.073399,0.47956 0,0.66146 -0.073399,0.1819 -0.1334521,0.0331 -0.1334521,-0.33073 z M 47.67658,152.00312 c 0.0054,-0.43656 0.06469,-0.58312 0.131774,-0.32569 0.06708,0.25743 0.06267,0.61462 -0.0098,0.79375 -0.07248,0.17913 -0.127362,-0.0315 -0.12197,-0.46806 z M 9.0805195,148.16667 c 0,-0.94589 0.04802,-1.33284 0.1067121,-0.8599 0.058692,0.47294 0.058692,1.24685 0,1.71979 -0.058692,0.47294 -0.1067121,0.086 -0.1067121,-0.85989 z M 47.666776,144.4625 c 0,-0.3638 0.06005,-0.51263 0.133452,-0.33073 0.0734,0.1819 0.0734,0.47956 0,0.66146 -0.0734,0.1819 -0.133452,0.0331 -0.133452,-0.33073 z M 9.3119967,141.41979 c 0.00539,-0.43656 0.06469,-0.58312 0.1317736,-0.32569 0.067083,0.25743 0.062672,0.61462 -0.0098,0.79375 -0.072476,0.17913 -0.1273619,-0.0315 -0.1219698,-0.46806 z m 0.2338913,-3.46163 c 0.012696,-0.30823 0.075391,-0.37092 0.1598525,-0.15985 0.07643,0.19099 0.067031,0.4192 -0.020888,0.50711 -0.087919,0.0879 -0.1504528,-0.0684 -0.1389645,-0.34726 z m 0.529167,-3.96875 c 0.01269,-0.30823 0.07539,-0.37092 0.159852,-0.15985 0.07643,0.19099 0.06703,0.4192 -0.02089,0.50711 -0.08792,0.0879 -0.150453,-0.0684 -0.138964,-0.34726 z"
         id="path20" /><path
         style="fill:#f47368"
         d="m 142.57667,103.25365 c -0.32911,-0.41965 -0.31975,-0.42901 0.0999,-0.0999 0.44073,0.34564 0.58089,0.56292 0.36313,0.56292 -0.0549,0 -0.2633,-0.20836 -0.46302,-0.46302 z M 37.173958,79.904166 c 0.864015,-0.873125 1.630467,-1.5875 1.703227,-1.5875 0.07276,0 -0.574629,0.714375 -1.438643,1.5875 -0.864015,0.873125 -1.630467,1.5875 -1.703227,1.5875 -0.07276,0 0.574629,-0.714375 1.438643,-1.5875 z"
         id="path19" /><path
         style="fill:#4184f3"
         d="m 168.37571,220.18249 c -2.01638,-1.57581 -24.59868,-19.07555 -26.87394,-20.82548 -1.5506,-1.19257 -1.9678,-1.6455 -1.75354,-1.90366 0.15463,-0.18632 0.43242,-0.33877 0.61732,-0.33877 0.18489,0 0.40512,-0.1797 0.48941,-0.39933 0.0843,-0.21963 0.24584,-0.37461 0.35903,-0.34439 0.11319,0.0302 0.74158,-0.44732 1.39643,-1.06118 0.65484,-0.61386 1.7264,-1.55036 2.38125,-2.08112 0.65484,-0.53077 2.20265,-2.20542 3.43958,-3.72145 1.23693,-1.51603 2.45732,-2.98439 2.71198,-3.26302 0.25466,-0.27862 0.46302,-0.56402 0.46302,-0.63422 0,-0.0702 0.47251,-0.89962 1.05002,-1.84317 1.47045,-2.40243 2.56853,-4.63357 3.61851,-7.35232 1.05542,-2.73284 2.48081,-8.08154 2.28774,-8.58467 -0.10936,-0.28499 -4.9235,-0.34846 -26.43145,-0.34846 h -26.29774 v -18.58698 l -1e-5,-18.58698 45.13188,0.0677 c 35.58132,0.0533 45.19754,0.13732 45.44219,0.39687 0.17067,0.18107 0.34618,0.62688 0.39002,0.99068 0.0438,0.3638 0.1417,1.07818 0.21747,1.5875 0.0758,0.50932 0.15055,1.31299 0.16618,1.78594 0.0156,0.47294 0.10943,0.85989 0.20843,0.85989 0.099,0 0.1462,0.47479 0.10486,1.05509 -0.0413,0.5803 0.0443,1.12892 0.19032,1.21916 0.15929,0.0984 0.19494,0.67692 0.0891,1.44626 -0.097,0.7052 -0.0873,1.42624 0.0215,1.6023 0.10881,0.17606 0.25661,1.04475 0.32846,1.93042 0.20631,2.54356 0.15564,12.5331 -0.0739,14.5749 -0.11454,1.01864 -0.23586,2.50693 -0.26962,3.30729 -0.0337,0.80036 -0.097,1.57427 -0.14046,1.71979 -0.0435,0.14552 -0.10372,0.62177 -0.1338,1.05833 -0.0301,0.43657 -0.14387,1.00389 -0.25285,1.26073 -0.10898,0.25684 -0.13637,0.7032 -0.0609,0.99192 0.0755,0.28873 0.0224,0.59594 -0.11796,0.6827 -0.14038,0.0868 -0.1782,0.50847 -0.0841,0.93714 0.10204,0.46455 0.0429,0.93398 -0.1464,1.16207 -0.17467,0.21046 -0.24847,0.56277 -0.164,0.78291 0.0845,0.22013 0.0383,0.40024 -0.10253,0.40024 -0.14087,0 -0.2498,0.38696 -0.24208,0.8599 0.0173,1.06211 -0.10926,1.8265 -0.37323,2.25361 -0.11084,0.17934 -0.13302,0.43691 -0.0493,0.57238 0.0837,0.13546 0.0364,0.31787 -0.10512,0.40535 -0.14154,0.0875 -0.18969,0.33534 -0.10701,0.55081 0.0827,0.21548 0.008,0.56364 -0.16662,0.77369 -0.17433,0.21005 -0.24524,0.49797 -0.15758,0.63981 0.0877,0.14184 0.0303,0.33769 -0.12755,0.43523 -0.15782,0.0975 -0.22449,0.34007 -0.14816,0.53897 0.0763,0.1989 0.0168,0.43703 -0.1323,0.52917 -0.14908,0.0921 -0.20861,0.33026 -0.13229,0.52916 0.0763,0.19891 0.0168,0.43703 -0.13229,0.52917 -0.14909,0.0921 -0.20715,0.33408 -0.12904,0.53764 0.0781,0.20356 0.0304,0.37011 -0.10595,0.37011 -0.13639,0 -0.17886,0.18011 -0.0944,0.40025 0.0845,0.22013 0.0222,0.55851 -0.1383,0.75195 -0.16054,0.19343 -0.21354,0.43004 -0.11779,0.52579 0.0958,0.0957 0.0224,0.1741 -0.1629,0.1741 -0.18757,0 -0.2709,0.1722 -0.18794,0.3884 0.082,0.21362 0.0271,0.46379 -0.12202,0.55593 -0.14909,0.0921 -0.20716,0.33408 -0.12904,0.53764 0.0781,0.20356 0.014,0.37011 -0.14256,0.37011 -0.15653,0 -0.21606,0.17859 -0.1323,0.39687 0.0838,0.21829 0.0407,0.39688 -0.0957,0.39688 -0.13638,0 -0.18406,0.16655 -0.10595,0.37011 0.0781,0.20356 0.0129,0.44992 -0.14491,0.54745 -0.15781,0.0975 -0.21844,0.28817 -0.13471,0.42364 0.0837,0.13546 0.0191,0.2463 -0.14359,0.2463 -0.1627,0 -0.214,0.13237 -0.11401,0.29416 0.1,0.16179 0.0415,0.38087 -0.12993,0.48683 -0.17146,0.10597 -0.33111,0.44984 -0.35479,0.76417 -0.0237,0.31433 -0.14951,0.57151 -0.27964,0.57151 -0.13012,0 -0.16805,0.17859 -0.0843,0.39687 0.0838,0.21828 0.03,0.39688 -0.1196,0.39688 -0.14954,0 -0.19831,0.11906 -0.10837,0.26458 0.0899,0.14552 0.0247,0.26458 -0.14498,0.26458 -0.16968,0 -0.24293,0.1709 -0.16277,0.37978 0.0802,0.20888 0.0281,0.41901 -0.11574,0.46694 -0.14381,0.0479 -0.28153,0.35329 -0.30603,0.67856 -0.0245,0.32526 -0.1453,0.59139 -0.26844,0.59139 -0.12314,0 -0.15539,0.11084 -0.0717,0.2463 0.0837,0.13547 0.0312,0.32109 -0.11668,0.41249 -0.14789,0.0914 -0.2689,0.39729 -0.2689,0.67974 0,0.28245 -0.12609,0.51355 -0.2802,0.51355 -0.1541,0 -0.20661,0.11907 -0.11667,0.26459 0.0899,0.14552 0.0304,0.26458 -0.13229,0.26458 -0.1627,0 -0.22223,0.11906 -0.1323,0.26458 0.0899,0.14552 0.0374,0.26459 -0.11667,0.26459 -0.15411,0 -0.25491,0.0893 -0.22399,0.19843 0.0309,0.10914 -0.084,0.45068 -0.25527,0.75897 -0.17132,0.30828 -0.2363,0.63571 -0.14441,0.7276 0.0919,0.0919 0.0212,0.16708 -0.15721,0.16708 -0.17837,0 -0.25072,0.11906 -0.16078,0.26458 0.0899,0.14552 0.0304,0.26459 -0.13229,0.26459 -0.1627,0 -0.22223,0.11906 -0.13229,0.26458 0.0899,0.14552 0.0304,0.26458 -0.13229,0.26458 -0.1627,0 -0.22223,0.11907 -0.1323,0.26459 0.0899,0.14552 0.0374,0.26458 -0.11667,0.26458 -0.15411,0 -0.2802,0.16401 -0.2802,0.36448 0,0.20046 -0.17479,0.50954 -0.38842,0.68683 -0.21363,0.1773 -0.36863,0.40024 -0.34445,0.49542 0.0902,0.35529 -0.3708,1.36369 -0.62349,1.36369 -0.1443,0 -0.18879,0.11906 -0.0988,0.26458 0.0899,0.14552 0.0374,0.26458 -0.11668,0.26458 -0.1541,0 -0.28019,0.1786 -0.28019,0.39688 0,0.21828 -0.12609,0.39687 -0.2802,0.39687 -0.15411,0 -0.20662,0.11907 -0.11668,0.26459 0.0899,0.14552 0.0374,0.26458 -0.11668,0.26458 -0.1541,0 -0.28019,0.17859 -0.28019,0.39687 0,0.21829 -0.22821,0.62508 -0.50712,0.904 -0.27892,0.27891 -0.43767,0.57657 -0.35278,0.66146 0.0849,0.0849 0.0154,0.15434 -0.15434,0.15434 -0.16977,0 -0.30868,0.17859 -0.30868,0.39687 0,0.21828 -0.12609,0.39688 -0.2802,0.39688 -0.15411,0 -0.20609,0.1199 -0.11552,0.26645 0.0906,0.14655 -0.0208,0.33762 -0.24745,0.4246 -0.22667,0.087 -0.34573,0.26557 -0.26458,0.39687 0.0812,0.1313 -0.0379,0.3099 -0.26459,0.39688 -0.22666,0.087 -0.34573,0.26557 -0.26458,0.39687 0.0812,0.1313 -0.0379,0.3099 -0.26458,0.39688 -0.22667,0.087 -0.34573,0.26557 -0.26459,0.39687 0.0811,0.1313 -0.0386,0.31016 -0.2661,0.39746 -0.2275,0.0873 -0.41364,0.2983 -0.41364,0.46889 0,0.17059 -0.23175,0.47719 -0.515,0.68135 -0.28325,0.20415 -0.46444,0.45297 -0.40266,0.55294 0.0618,0.1 -0.30178,0.60816 -0.80792,1.12932 -0.50614,0.52115 -0.91918,1.04275 -0.91787,1.15911 0.001,0.11635 -0.38564,0.54899 -0.8599,0.96143 -0.47425,0.41243 -0.68368,0.6717 -0.4654,0.57614 0.21828,-0.0956 -0.0794,0.24681 -0.66146,0.76083 -0.58209,0.51401 -1.05834,1.03612 -1.05834,1.16023 0,0.21546 -5.04156,5.35188 -5.25304,5.35188 -0.056,0 -0.68289,-0.45413 -1.39312,-1.00918 z"
         id="path18" /><path
         style="fill:#f9ba03"
         d="m 18.234695,189.00937 c -6.085019,-13.16928 -8.9785975,-26.303 -8.9691865,-40.71041 0.00776,-11.88056 1.8135365,-22.3827 5.6849445,-33.06284 1.141874,-3.15011 3.931617,-9.59153 4.33101,-10.00014 0.164863,-0.16867 29.339192,22.18386 30.827852,23.61941 0.540393,0.52112 0.564332,0.32379 -0.513159,4.23003 -1.806932,6.55069 -2.426537,15.00232 -1.592657,21.72439 0.408475,3.29279 1.46735,8.32881 2.250092,10.70146 l 0.486538,1.4748 -8.238294,6.38681 c -4.531061,3.51274 -11.452981,8.88107 -15.382043,11.92961 -3.929063,3.04854 -7.291672,5.65753 -7.472465,5.79776 -0.244351,0.18952 -0.606901,-0.34711 -1.412632,-2.09088 z"
         id="path17" /><path
         style="fill:#6dc485"
         d="m 35.420418,214.64323 c -0.329108,-0.41965 -0.31975,-0.429 0.09989,-0.0999 0.254662,0.19972 0.463021,0.40808 0.463021,0.46302 0,0.21777 -0.217272,0.0776 -0.562915,-0.36312 z"
         id="path16" /><path
         style="fill:#3d81f3"
         d="m 175.28646,215.37083 c 0.26339,-0.29104 0.53842,-0.52916 0.61118,-0.52916 0.0728,0 -0.0832,0.23812 -0.3466,0.52916 -0.26339,0.29104 -0.53842,0.52917 -0.61118,0.52917 -0.0728,0 0.0832,-0.23813 0.3466,-0.52917 z m 1.19062,-1.42281 c 0,-0.0549 0.20836,-0.2633 0.46302,-0.46302 0.41965,-0.32911 0.42901,-0.31975 0.0999,0.0999 -0.34564,0.44072 -0.56292,0.58088 -0.56292,0.36312 z m 19.88553,-43.29177 c 0,-0.3638 0.0601,-0.51263 0.13345,-0.33073 0.0734,0.1819 0.0734,0.47956 0,0.66146 -0.0734,0.1819 -0.13345,0.0331 -0.13345,-0.33073 z m 0.24369,-1.21267 c 0.0127,-0.30823 0.0754,-0.37092 0.15986,-0.15986 0.0764,0.191 0.067,0.4192 -0.0209,0.50712 -0.0879,0.0879 -0.15045,-0.0684 -0.13897,-0.34726 z m 0.26459,-2.11667 c 0.0127,-0.30823 0.0754,-0.37092 0.15985,-0.15985 0.0764,0.19099 0.067,0.4192 -0.0209,0.50711 -0.0879,0.0879 -0.15045,-0.0684 -0.13896,-0.34726 z m 0.29527,-1.56545 c 0.005,-0.43656 0.0647,-0.58313 0.13178,-0.3257 0.0671,0.25744 0.0627,0.61462 -0.01,0.79375 -0.0725,0.17914 -0.12736,-0.0315 -0.12197,-0.46805 z m 0.23389,-1.60955 c 0.0127,-0.30823 0.0754,-0.37092 0.15986,-0.15985 0.0764,0.19099 0.067,0.4192 -0.0209,0.50711 -0.0879,0.0879 -0.15045,-0.0683 -0.13897,-0.34726 z m 0.30508,-3.28524 c 0,-0.50933 0.0545,-0.71769 0.121,-0.46302 0.0666,0.25466 0.0666,0.67138 0,0.92604 -0.0666,0.25466 -0.121,0.0463 -0.121,-0.46302 z m 0.26459,-2.64584 c 0,-0.50932 0.0545,-0.71768 0.121,-0.46302 0.0666,0.25466 0.0666,0.67138 0,0.92604 -0.0666,0.25467 -0.121,0.0463 -0.121,-0.46302 z m -0.01,-15.47812 c 0.005,-0.43656 0.0647,-0.58313 0.13178,-0.3257 0.0671,0.25744 0.0627,0.61462 -0.01,0.79375 -0.0725,0.17914 -0.12736,-0.0315 -0.12197,-0.46805 z m -0.25478,-2.24896 c 0,-0.50932 0.0545,-0.71768 0.121,-0.46302 0.0666,0.25466 0.0666,0.67138 0,0.92604 -0.0666,0.25466 -0.121,0.0463 -0.121,-0.46302 z m -0.28419,-3.43958 c 0,-0.36381 0.0601,-0.51263 0.13345,-0.33073 0.0734,0.1819 0.0734,0.47955 0,0.66146 -0.0734,0.1819 -0.13345,0.0331 -0.13345,-0.33073 z m -0.81464,-5.44601 c 0.0127,-0.30823 0.0754,-0.37092 0.15986,-0.15985 0.0764,0.19099 0.067,0.4192 -0.0209,0.50711 -0.0879,0.0879 -0.15045,-0.0684 -0.13897,-0.34726 z m -0.28547,-0.90324 c 0,-0.17408 -15.36737,-0.28684 -45.1776,-0.33149 l -45.17761,-0.0677 45.3099,-0.0654 c 40.12813,-0.0579 45.3099,-0.02 45.3099,0.33149 0,0.21829 -0.0595,0.39688 -0.1323,0.39688 -0.0728,0 -0.13229,-0.11872 -0.13229,-0.26383 z"
         id="path15" /><path
         style="fill:#63bf7c"
         d="m 37.297212,216.49531 -1.44617,-1.52135 1.521354,1.44617 c 1.413386,1.34354 1.642558,1.59654 1.44617,1.59654 -0.04135,0 -0.725961,-0.68461 -1.521354,-1.52136 z m 63.459428,-9.5073 c 0.191,-0.0764 0.4192,-0.067 0.50712,0.0209 0.0879,0.0879 -0.0684,0.15045 -0.34727,0.13896 -0.30822,-0.0127 -0.37092,-0.0754 -0.15985,-0.15985 z"
         id="path14" /><path
         style="fill:#ee5d51"
         d="m 156.50104,90.222916 c 7.42049,-7.421562 13.55134,-13.49375 13.6241,-13.49375 0.0728,0 -5.93902,6.072188 -13.35952,13.49375 -7.42049,7.421563 -13.55133,13.493754 -13.62409,13.493754 -0.0728,0 5.93902,-6.072191 13.35951,-13.493754 z M 99.96289,51.677592 c 0.191,-0.07643 0.4192,-0.06703 0.50712,0.02089 0.0879,0.08792 -0.0683,0.150452 -0.34727,0.138964 -0.308222,-0.0127 -0.370916,-0.07539 -0.15985,-0.159853 z"
         id="path13" /><path
         style="fill:#f49114"
         d="m 50.237084,128.91823 c -0.329107,-0.41965 -0.319749,-0.429 0.09989,-0.0999 0.254661,0.19972 0.463021,0.40808 0.463021,0.46302 0,0.21777 -0.217272,0.0776 -0.562916,-0.36312 z m -1.322916,-1.05833 c -0.329108,-0.41965 -0.31975,-0.42901 0.09989,-0.0999 0.44073,0.34564 0.580887,0.56292 0.363126,0.56292 -0.05494,0 -0.263301,-0.20836 -0.46302,-0.46302 z M 35.949584,117.80573 c -0.329107,-0.41965 -0.319749,-0.429 0.09989,-0.0999 0.254661,0.19972 0.463021,0.40808 0.463021,0.46302 0,0.21777 -0.217272,0.0776 -0.562916,-0.36312 z m -2.38125,-1.85208 c -0.329107,-0.41965 -0.319749,-0.42901 0.09989,-0.0999 0.440729,0.34564 0.580887,0.56292 0.363126,0.56292 -0.05494,0 -0.263301,-0.20836 -0.463021,-0.46302 z m -8.202083,-6.35 c -0.329108,-0.41965 -0.319749,-0.42901 0.0999,-0.0999 0.254661,0.19972 0.463021,0.40808 0.463021,0.46302 0,0.21776 -0.217272,0.0776 -0.562916,-0.36312 z m -2.38125,-1.85209 c -0.329108,-0.41964 -0.319749,-0.429 0.0999,-0.0999 0.254661,0.19972 0.463021,0.40808 0.463021,0.46302 0,0.21776 -0.217272,0.0776 -0.562916,-0.36313 z m -2.38125,-1.85208 c -0.329108,-0.41965 -0.319749,-0.429 0.0999,-0.0999 0.254661,0.19972 0.463021,0.40808 0.463021,0.46302 0,0.21777 -0.217272,0.0776 -0.562916,-0.36312 z"
         id="path12" /><path
         style="fill:#ed574b"
         d="m 110.81081,51.677592 c 0.19099,-0.07643 0.4192,-0.06703 0.50712,0.02089 0.0879,0.08792 -0.0684,0.150452 -0.34727,0.138964 -0.30822,-0.0127 -0.37092,-0.07539 -0.15985,-0.159853 z"
         id="path11" /><path
         style="fill:#ef6625"
         d="m 30.393334,113.30781 c -0.329107,-0.41964 -0.319749,-0.429 0.0999,-0.0999 0.254661,0.19972 0.463021,0.40808 0.463021,0.46302 0,0.21776 -0.217272,0.0776 -0.562916,-0.36313 z"
         id="path10" /><path
         style="fill:#ec4e40"
         d="m 103.25365,88.975074 c 0.40018,-0.06062 1.05502,-0.06062 1.4552,0 0.40019,0.06062 0.0728,0.110223 -0.7276,0.110223 -0.80036,0 -1.12779,-0.0496 -0.7276,-0.110223 z m 3.43958,0 c 0.40018,-0.06062 1.05503,-0.06062 1.45521,0 0.40018,0.06062 0.0728,0.110223 -0.72761,0.110223 -0.80036,0 -1.12778,-0.0496 -0.7276,-0.110223 z M 92.289974,52.471342 c 0.190996,-0.07643 0.419199,-0.06703 0.507118,0.02089 0.08792,0.08792 -0.06835,0.150452 -0.347266,0.138964 -0.308224,-0.0127 -0.370919,-0.07539 -0.159852,-0.159853 z m 26.722916,0 c 0.191,-0.07643 0.4192,-0.06703 0.50712,0.02089 0.0879,0.08792 -0.0683,0.150452 -0.34727,0.138964 -0.30822,-0.0127 -0.37092,-0.07539 -0.15985,-0.159853 z m -17.74362,-0.799734 c 0.32742,-0.06306 0.8632,-0.06306 1.19063,0 0.32742,0.06306 0.0595,0.114662 -0.59532,0.114662 -0.65484,0 -0.92273,-0.0516 -0.59531,-0.114662 z m 7.41142,-4.04e-4 c 0.32912,-0.06329 0.80537,-0.06088 1.05833,0.0053 0.25297,0.06622 -0.0163,0.118003 -0.5984,0.115066 -0.58208,-0.0029 -0.78905,-0.05712 -0.45993,-0.120405 z"
         id="path9" /><path
         style="fill:#4eb569"
         d="m 100.08368,244.55623 c 0.25743,-0.0671 0.61462,-0.0627 0.79375,0.01 0.17913,0.0725 -0.0315,0.12736 -0.46806,0.12197 -0.436558,-0.005 -0.58312,-0.0647 -0.32569,-0.13177 z m 10.84288,9.7e-4 c 0.25466,-0.0666 0.67138,-0.0666 0.92604,0 0.25467,0.0666 0.0463,0.121 -0.46302,0.121 -0.50932,0 -0.71768,-0.0545 -0.46302,-0.121 z m -16.784503,-0.52752 c 0.190996,-0.0764 0.419199,-0.067 0.507118,0.0209 0.08792,0.0879 -0.06835,0.15046 -0.347265,0.13897 -0.308225,-0.0127 -0.37092,-0.0754 -0.159853,-0.15985 z M 168.275,222.67927 c 0,-0.0549 0.20836,-0.2633 0.46302,-0.46302 0.41964,-0.32911 0.429,-0.31975 0.0999,0.0999 -0.34565,0.44072 -0.56292,0.58088 -0.56292,0.36312 z m -127.157431,-2.61208 -0.504027,-0.59532 0.595312,0.50403 c 0.559447,0.47366 0.715762,0.6866 0.504028,0.6866 -0.05021,0 -0.318097,-0.26789 -0.595313,-0.59531 z m -7.549235,-7.54063 c -0.329107,-0.41964 -0.319749,-0.429 0.09989,-0.0999 0.440729,0.34564 0.580887,0.56291 0.363126,0.56291 -0.05494,0 -0.263301,-0.20836 -0.463021,-0.46302 z m 71.950806,-5.27397 c 0.191,-0.0764 0.4192,-0.067 0.50712,0.0209 0.0879,0.0879 -0.0683,0.15045 -0.34727,0.13896 -0.30822,-0.0127 -0.37092,-0.0754 -0.15985,-0.15985 z m -5.55625,-0.26458 c 0.191,-0.0764 0.4192,-0.067 0.50712,0.0209 0.0879,0.0879 -0.0683,0.15045 -0.34727,0.13896 -0.308222,-0.0127 -0.370916,-0.0754 -0.15985,-0.15985 z m 11.76246,-0.003 c 0.25743,-0.0671 0.61462,-0.0627 0.79375,0.01 0.17913,0.0725 -0.0315,0.12736 -0.46806,0.12197 -0.43656,-0.005 -0.58312,-0.0647 -0.32569,-0.13177 z m -43.884864,-14.1703 -0.504028,-0.59531 0.595313,0.50403 c 0.327422,0.27721 0.595312,0.54511 0.595312,0.59531 0,0.21174 -0.212935,0.0554 -0.686597,-0.50403 z m -5.167985,-5.15937 c -0.329108,-0.41965 -0.319749,-0.429 0.0999,-0.0999 0.440729,0.34565 0.580887,0.56292 0.363126,0.56292 -0.05494,0 -0.263302,-0.20836 -0.463021,-0.46302 z"
         id="path8" /><path
         style="fill:#e94133"
         d="m 47.492708,126.49906 c -1.600729,-1.27607 -8.473557,-6.63294 -15.27295,-11.90416 -6.799393,-5.27123 -12.428506,-9.69079 -12.509139,-9.82126 -0.230865,-0.37355 3.773496,-7.54368 4.466838,-7.998235 0.163076,-0.106912 0.202768,-0.196209 0.0882,-0.198437 -0.186051,-0.0036 1.605996,-2.821429 2.310415,-3.63289 0.778537,-0.896843 0.94059,-1.132021 0.94059,-1.365029 0,-0.139536 0.0893,-0.29339 0.198437,-0.341897 0.109141,-0.04851 0.555625,-0.614301 0.992188,-1.25732 0.436562,-0.64302 1.166695,-1.553496 1.622516,-2.02328 0.455822,-0.469784 0.872541,-0.981371 0.926042,-1.136859 0.238127,-0.692059 3.287531,-3.878149 10.553451,-11.026501 0.512147,-0.50386 1.009004,-0.916109 1.104127,-0.916109 0.09512,0 0.51907,-0.327422 0.942105,-0.727604 1.315687,-1.244613 3.013901,-2.575794 3.400091,-2.665234 0.203157,-0.04705 0.369376,-0.178627 0.369376,-0.292393 0,-0.267023 3.035515,-2.400186 3.415492,-2.400186 0.158771,0 0.288675,-0.09905 0.288675,-0.22012 0,-0.255162 4.626719,-3.219463 5.024978,-3.219463 0.146678,0 0.266688,-0.104618 0.266688,-0.232484 0,-0.127866 0.386953,-0.388997 0.859896,-0.580291 0.472943,-0.191294 0.919427,-0.427999 0.992188,-0.526011 0.182951,-0.246445 8.202083,-4.241327 8.202083,-4.086022 0,0.06895 0.386953,-0.110567 0.859896,-0.398925 0.472942,-0.288359 1.127786,-0.524734 1.455208,-0.525278 0.327422,-5.44e-4 0.595313,-0.107144 0.595313,-0.236889 0,-0.195719 0.950753,-0.585303 1.631597,-0.668569 0.09701,-0.01187 0.265686,-0.11087 0.374826,-0.22001 0.109141,-0.109141 0.466328,-0.198438 0.79375,-0.198438 0.327422,0 0.635,-0.115619 0.683507,-0.256932 0.04851,-0.141312 0.32632,-0.302019 0.617361,-0.357126 0.291042,-0.05511 0.728229,-0.186783 0.971526,-0.292613 0.243298,-0.105831 0.660017,-0.233671 0.926042,-0.284089 0.266025,-0.05042 0.513448,-0.115662 0.549828,-0.144986 0.03638,-0.02932 0.185208,-0.08308 0.330729,-0.119462 0.145521,-0.03638 0.35388,-0.09916 0.463021,-0.139519 0.109141,-0.04036 0.3175,-0.101035 0.463021,-0.134845 0.145521,-0.03381 0.324114,-0.08405 0.396875,-0.111653 0.07276,-0.0276 0.429948,-0.103187 0.79375,-0.167972 0.363802,-0.06479 1.037549,-0.294494 1.497215,-0.510464 0.459667,-0.21597 1.025214,-0.319972 1.256771,-0.231115 0.231558,0.08886 0.421014,0.04301 0.421014,-0.101887 0,-0.241113 1.206343,-0.590427 2.513542,-0.727832 0.291041,-0.03059 0.70776,-0.121202 0.926041,-0.201353 0.979544,-0.359683 3.17418,-0.747805 3.408742,-0.602838 0.142373,0.08799 0.328963,0.04656 0.414644,-0.09208 0.08568,-0.138634 0.361799,-0.250411 0.613595,-0.248392 0.251796,0.002 1.231717,-0.122225 2.177603,-0.276099 0.945885,-0.153874 2.523463,-0.282164 3.505729,-0.28509 0.982265,-0.0029 1.785937,-0.1095 1.785937,-0.236831 0,-0.221806 4.427932,-0.410299 8.334382,-0.354787 0.43656,0.0062 1.27,0.0076 1.85208,0.003 3.47799,-0.02714 7.30755,0.155622 7.43053,0.354605 0.0788,0.127431 0.64176,0.231551 1.25112,0.231377 0.60937,-1.73e-4 1.58418,0.0641 2.16627,0.14282 0.58208,0.07872 1.44528,0.146181 1.91823,0.149904 0.47294,0.0037 0.85989,0.105055 0.85989,0.225181 0,0.120126 0.65427,0.226226 1.45393,0.235777 0.79965,0.0096 1.69508,0.146434 1.98984,0.304183 0.29475,0.157749 0.65252,0.214752 0.79503,0.126674 0.14252,-0.08808 0.25912,-0.04202 0.25912,0.10236 0,0.144376 0.32742,0.262218 0.7276,0.26187 0.40018,-3.48e-4 1.02526,0.07523 1.38907,0.167945 0.3638,0.09272 1.07816,0.233235 1.58749,0.312261 0.50933,0.07903 0.99648,0.255824 1.08259,0.392885 0.0861,0.13706 0.26469,0.228815 0.39687,0.203901 0.13219,-0.02491 0.29987,-0.02316 0.37263,0.0039 0.0728,0.02705 0.53809,0.101745 1.03406,0.165981 0.49598,0.06424 1.06152,0.249373 1.25676,0.411416 0.19525,0.162042 0.355,0.205934 0.355,0.09754 0,-0.108397 0.1786,-0.04886 0.39688,0.132292 0.21828,0.181157 0.39688,0.251078 0.39688,0.155379 0,-0.0957 0.24857,-0.04097 0.55238,0.121624 0.3038,0.162592 0.861,0.351588 1.23822,0.419992 0.37722,0.0684 0.81327,0.204008 0.96898,0.301345 0.15572,0.09734 0.5119,0.212556 0.79152,0.256042 0.27962,0.04349 0.66658,0.210337 0.8599,0.37078 0.19332,0.160443 0.35149,0.213416 0.35149,0.117717 0,-0.0957 0.26789,-0.0252 0.59532,0.156665 0.32742,0.181865 0.65484,0.340735 0.7276,0.353045 0.4991,0.08444 1.47881,0.500976 1.59314,0.677341 0.0759,0.117027 0.43304,0.267339 0.79375,0.334027 0.86514,0.159951 2.19373,0.757444 2.4377,1.096283 0.10692,0.148482 0.19621,0.173809 0.19844,0.05628 0.004,-0.220969 6.71529,3.146177 7.25451,3.639795 0.16707,0.152932 0.89453,0.575715 1.61659,0.939517 0.72206,0.363802 1.49455,0.840052 1.71664,1.058334 0.22208,0.218281 0.72958,0.54315 1.12775,0.721931 0.39819,0.178782 0.72399,0.453699 0.72399,0.610928 0,0.157229 0.11906,0.212286 0.26458,0.122349 0.14552,-0.08994 0.26459,-0.03743 0.26459,0.116677 0,0.154109 0.1612,0.280198 0.35823,0.280198 0.19704,0 0.67941,0.297656 1.07196,0.661458 0.39255,0.363802 0.82565,0.661459 0.96244,0.661459 0.13679,0 0.39742,0.238125 0.57918,0.529166 0.18175,0.291042 0.43983,0.529167 0.57351,0.529167 0.27789,0 2.64642,1.753358 3.92759,2.907494 1.44445,1.301221 2.67994,2.36393 3.37499,2.903019 l 0.66146,0.513026 -13.49364,13.507843 -13.49364,13.507846 -0.79385,-0.78731 c -1.12601,-1.11669 -2.00311,-1.8404 -3.68789,-3.042877 -0.80938,-0.577684 -1.4716,-1.143231 -1.4716,-1.256771 0,-0.11354 -0.12388,-0.206437 -0.27529,-0.206437 -0.30856,0 -1.86785,-1.046606 -2.16805,-1.455208 -0.10691,-0.145521 -0.19621,-0.166782 -0.19844,-0.04725 -0.002,0.119535 -0.19115,0.03024 -0.41982,-0.198438 -0.22868,-0.228675 -0.57736,-0.415773 -0.77485,-0.415773 -0.19749,0 -0.51641,-0.154039 -0.70871,-0.342308 -0.53418,-0.523 -4.1209,-2.280515 -4.29623,-2.105183 -0.0849,0.08494 -0.15444,0.0085 -0.15444,-0.16986 0,-0.178363 -0.10889,-0.256996 -0.24198,-0.174741 -0.13309,0.08226 -0.28192,0.03319 -0.33073,-0.109025 -0.0488,-0.142219 -0.32687,-0.297611 -0.61791,-0.345315 -0.29104,-0.0477 -0.82682,-0.24986 -1.19063,-0.449236 -0.3638,-0.199375 -0.69122,-0.342382 -0.7276,-0.317792 -0.0364,0.02459 -0.12568,0.02983 -0.19844,0.01164 -0.0728,-0.01819 -0.25135,-0.06284 -0.39687,-0.09922 -0.14552,-0.03638 -0.32412,-0.09591 -0.39688,-0.132292 -0.0728,-0.03638 -0.22159,-0.09101 -0.33073,-0.121389 -0.10914,-0.03038 -0.55562,-0.206228 -0.99219,-0.390765 -0.43656,-0.184536 -1.15093,-0.369866 -1.5875,-0.411844 -0.43656,-0.04198 -0.82351,-0.104259 -0.85989,-0.138402 -0.0364,-0.03414 -0.18521,-0.09185 -0.33073,-0.128225 -0.14552,-0.03638 -0.29435,-0.09622 -0.33073,-0.132985 -0.0618,-0.06247 -0.3174,-0.118015 -1.65365,-0.359407 -0.29104,-0.05258 -0.71976,-0.177578 -0.95271,-0.277781 -0.23295,-0.100202 -0.5306,-0.162165 -0.66145,-0.137695 -0.13086,0.02447 -0.35698,0.01242 -0.5025,-0.02678 -0.14552,-0.0392 -0.62177,-0.11052 -1.05834,-0.158487 -0.43656,-0.04797 -1.27,-0.164282 -1.85208,-0.258479 -0.58208,-0.0942 -3.79677,-0.166504 -7.14375,-0.160683 -7.587991,0.0132 -7.284874,-3.76e-4 -7.700826,0.344834 -0.194876,0.161733 -0.689352,0.213101 -1.126694,0.117044 -0.455756,-0.1001 -0.852383,-0.05309 -0.955161,0.113205 -0.09667,0.156414 -0.263404,0.230224 -0.370522,0.164021 -0.107118,-0.0662 -0.664438,-0.0052 -1.238489,0.135665 -0.57405,0.140818 -1.383835,0.308053 -1.799521,0.371633 -0.415686,0.06358 -0.90661,0.240769 -1.090944,0.393751 -0.184333,0.152983 -0.528835,0.203827 -0.765561,0.112987 -0.236726,-0.09084 -0.43041,-0.0371 -0.43041,0.119423 0,0.156523 -0.178594,0.216054 -0.396875,0.132292 -0.224758,-0.08625 -0.396875,-0.0062 -0.396875,0.184692 0,0.185344 -0.07834,0.258646 -0.174094,0.162895 -0.09575,-0.09575 -0.321344,-0.05189 -0.501316,0.09748 -0.179973,0.149364 -0.429053,0.244712 -0.553511,0.211885 -0.467841,-0.123399 -1.946079,0.359254 -1.946079,0.635406 0,0.158212 -0.06965,0.218005 -0.154785,0.132873 -0.1879,-0.1879 -1.769012,0.327049 -1.981328,0.645294 -0.08346,0.125093 -0.40315,0.27586 -0.710433,0.335038 -0.307283,0.05918 -0.834314,0.260276 -1.17118,0.446888 -0.336865,0.186611 -0.70178,0.313998 -0.81092,0.283082 -0.109141,-0.03092 -0.198438,0.06988 -0.198438,0.223987 0,0.154109 -0.109463,0.212545 -0.243252,0.129859 -0.133789,-0.08269 -0.417272,0.02368 -0.629961,0.23637 -0.212689,0.212689 -0.460413,0.313002 -0.550497,0.222918 -0.09008,-0.09009 -0.16379,-0.03412 -0.16379,0.124371 0,0.158489 -0.416719,0.425692 -0.926041,0.593783 -0.509323,0.168092 -0.926042,0.422477 -0.926042,0.565301 0,0.142823 -0.119063,0.186094 -0.264583,0.09616 -0.145521,-0.08994 -0.264584,-0.0397 -0.264584,0.111636 0,0.151336 -0.297656,0.349864 -0.661458,0.441172 -0.363802,0.09131 -0.661458,0.272171 -0.661458,0.401916 0,0.129745 -0.178594,0.235901 -0.396875,0.235901 -0.218282,0 -0.396875,0.126089 -0.396875,0.280198 0,0.154109 -0.111745,0.211136 -0.248322,0.126727 -0.136577,-0.08441 -0.344937,-0.0019 -0.463021,0.183254 -0.118085,0.185199 -0.556283,0.513058 -0.973774,0.728575 -0.417492,0.215517 -1.012804,0.659751 -1.322917,0.987185 -0.310113,0.327427 -0.708481,0.597387 -0.885262,0.599907 -0.176781,0.003 -0.454318,0.25289 -0.616749,0.55639 -0.162431,0.30351 -0.362943,0.48422 -0.445583,0.40158 -0.08264,-0.0826 -0.429782,0.17505 -0.771428,0.57265 -0.341646,0.3976 -0.713571,0.7229 -0.8265,0.7229 -0.26057,0 -6.411028,6.17316 -6.411028,6.43469 0,0.10689 -0.35234,0.50353 -0.782978,0.8814 -0.430638,0.37788 -0.718097,0.75194 -0.638798,0.83124 0.0793,0.0793 -0.104142,0.27707 -0.407647,0.43951 -0.303505,0.16243 -0.551827,0.4187 -0.551827,0.5695 0,0.15079 -0.148828,0.44013 -0.330729,0.64296 -0.685459,0.76436 -0.992187,1.16266 -0.992187,1.28841 0,0.0714 -0.295426,0.44859 -0.656502,0.8382 -0.361075,0.38961 -0.599884,0.79998 -0.530686,0.91195 0.0692,0.11196 -0.06914,0.27838 -0.30741,0.36981 -0.238273,0.0914 -0.366574,0.2329 -0.285112,0.31436 0.08146,0.0815 -0.08443,0.38066 -0.368656,0.66488 -0.284223,0.28422 -0.454206,0.618 -0.37774,0.74172 0.07647,0.12373 -0.03825,0.37209 -0.254933,0.55192 -0.216679,0.17982 -0.393961,0.49097 -0.393961,0.69143 0,0.20047 -0.12609,0.36448 -0.280199,0.36448 -0.154109,0 -0.206613,0.11907 -0.116676,0.26459 0.08994,0.14552 0.03041,0.26458 -0.132292,0.26458 -0.162697,0 -0.222229,0.11906 -0.132292,0.26458 0.08994,0.14552 0.05188,0.26459 -0.08458,0.26459 -0.263859,0 -1.010464,1.58359 -0.904374,1.91823 0.0346,0.10914 -0.06318,0.19843 -0.217289,0.19843 -0.154109,0 -0.206613,0.11907 -0.116676,0.26459 0.08994,0.14552 0.03041,0.26458 -0.132292,0.26458 -0.162697,0 -0.222229,0.11906 -0.132292,0.26458 0.08994,0.14552 0.01759,0.26459 -0.160774,0.26459 -0.178362,0 -0.245953,0.0783 -0.150202,0.17409 0.09575,0.0957 0.03001,0.34771 -0.1461,0.5599 -0.2994,0.36076 -0.899677,1.80638 -1.123459,2.70559 -0.05432,0.21828 -0.121978,0.45641 -0.150345,0.52917 -0.02837,0.0728 -0.03748,0.22158 -0.02024,0.33073 0.01723,0.10914 -0.100468,0.19843 -0.261558,0.19843 -0.16109,0 -0.224358,0.1786 -0.140596,0.39688 0.310676,0.8096 -0.564897,0.30629 -3.402972,-1.95615 z"
         id="path7" /><path
         style="fill:#379b88"
         d="m 143.37042,201.14948 c -0.32911,-0.41965 -0.31975,-0.429 0.0999,-0.0999 0.25466,0.19972 0.46302,0.40808 0.46302,0.46302 0,0.21777 -0.21727,0.0776 -0.56291,-0.36312 z"
         id="path6" /><path
         style="fill:#e93f30"
         d="m 52.122917,124.89895 c 0,-0.13693 0.117698,-0.32171 0.261552,-0.41062 0.149982,-0.0927 0.194339,0.0135 0.103984,0.24897 -0.175892,0.45837 -0.365536,0.54223 -0.365536,0.16165 z m 3.96875,-7.68853 c 0.15576,-0.29105 0.342732,-0.52917 0.415493,-0.52917 0.07276,0 0.0049,0.23812 -0.15091,0.52917 -0.155761,0.29104 -0.342733,0.52916 -0.415493,0.52916 -0.07276,0 -0.0049,-0.23812 0.15091,-0.52916 z m 6.482291,-8.73125 c 0.263389,-0.29105 0.538421,-0.52917 0.611181,-0.52917 0.07276,0 -0.08321,0.23812 -0.346597,0.52917 -0.26339,0.29104 -0.538421,0.52916 -0.611181,0.52916 -0.07276,0 0.08321,-0.23812 0.346597,-0.52916 z m 4.365625,-4.31613 c 0,-0.0455 0.386953,-0.43249 0.859896,-0.85989 l 0.859896,-0.77711 -0.777106,0.8599 c -0.724371,0.80154 -0.942686,0.98151 -0.942686,0.7771 z M 156.50104,89.958333 c 7.42049,-7.421563 13.55134,-13.49375 13.6241,-13.49375 0.0728,0 -5.93902,6.072187 -13.35952,13.49375 -7.42049,7.421562 -13.55133,13.493747 -13.62409,13.493747 -0.0728,0 5.93902,-6.072185 13.35951,-13.493747 z m -76.33229,4.923099 c 0,-0.05719 0.184777,-0.17489 0.410617,-0.261553 0.235459,-0.09035 0.341662,-0.046 0.248968,0.103985 -0.155378,0.251408 -0.659585,0.371858 -0.659585,0.157568 z m 13.708724,-4.839256 c 0.190996,-0.07643 0.419199,-0.06703 0.507118,0.02089 0.08792,0.08792 -0.06835,0.150453 -0.347266,0.138964 -0.308224,-0.0127 -0.370919,-0.07539 -0.159852,-0.159852 z m 22.489586,-0.264584 c 0.19099,-0.07643 0.4192,-0.06703 0.50712,0.02089 0.0879,0.08792 -0.0684,0.150452 -0.34727,0.138964 -0.30822,-0.0127 -0.37092,-0.07539 -0.15985,-0.159854 z M 96.258724,89.513009 c 0.190996,-0.07643 0.419199,-0.06703 0.507118,0.02089 0.08792,0.08792 -0.06835,0.150453 -0.347266,0.138964 -0.308224,-0.01269 -0.370919,-0.07539 -0.159852,-0.159852 z m 18.785416,0 c 0.191,-0.07643 0.4192,-0.06703 0.50712,0.02089 0.0879,0.08792 -0.0683,0.150453 -0.34727,0.138964 -0.30822,-0.01269 -0.37092,-0.07539 -0.15985,-0.159852 z M 98.358854,89.253938 c 0.181901,-0.0734 0.479557,-0.0734 0.661458,0 0.181901,0.0734 0.03307,0.133452 -0.330729,0.133452 -0.363802,0 -0.51263,-0.06005 -0.330729,-0.133452 z m 14.287496,0 c 0.18191,-0.0734 0.47956,-0.0734 0.66146,0 0.1819,0.0734 0.0331,0.133452 -0.33073,0.133452 -0.3638,0 -0.51263,-0.06005 -0.33073,-0.133452 z m -12.30312,-0.271739 c 0.25466,-0.06655 0.67138,-0.06655 0.92604,0 0.25466,0.06655 0.0463,0.121 -0.46302,0.121 -0.50932,0 -0.71768,-0.05445 -0.46302,-0.121 z m 10.05417,0 c 0.25466,-0.06655 0.67138,-0.06655 0.92604,0 0.25466,0.06655 0.0463,0.121 -0.46302,0.121 -0.50933,0 -0.71769,-0.05445 -0.46302,-0.121 z M 36.777083,80.615126 c 0,-0.04554 0.386953,-0.432488 0.859896,-0.859896 l 0.859896,-0.777105 -0.777106,0.859895 c -0.724371,0.801544 -0.942686,0.981512 -0.942686,0.777106 z M 79.060807,55.381759 c 0.190996,-0.07643 0.419199,-0.06703 0.507118,0.02089 0.08792,0.08792 -0.06835,0.150453 -0.347265,0.138964 -0.308225,-0.0127 -0.37092,-0.07539 -0.159853,-0.159852 z m 46.566663,-1.5875 c 0.191,-0.07643 0.4192,-0.06703 0.50712,0.02089 0.0879,0.08792 -0.0684,0.150453 -0.34726,0.138964 -0.30823,-0.0127 -0.37092,-0.07539 -0.15986,-0.159852 z m -4.51445,-0.788238 c 0.1819,-0.0734 0.47956,-0.0734 0.66146,0 0.1819,0.0734 0.0331,0.133452 -0.33073,0.133452 -0.3638,0 -0.51263,-0.06005 -0.33073,-0.133452 z m -1.57096,-0.270095 c 0.19099,-0.07643 0.4192,-0.06703 0.50712,0.02089 0.0879,0.08792 -0.0684,0.150453 -0.34727,0.138964 -0.30822,-0.0127 -0.37092,-0.07539 -0.15985,-0.159852 z M 95.448437,52.200774 c 0.327422,-0.06306 0.863203,-0.06306 1.190625,0 0.327422,0.06306 0.05953,0.114663 -0.595312,0.114663 -0.654844,0 -0.922735,-0.0516 -0.595313,-0.114663 z m 19.711463,0.0043 c 0.25466,-0.06655 0.67138,-0.06655 0.92604,0 0.25466,0.06655 0.0463,0.121 -0.46302,0.121 -0.50933,0 -0.71769,-0.05445 -0.46302,-0.121 z M 99.554515,51.939562 c 0.257431,-0.06708 0.614615,-0.06267 0.793745,0.0098 0.17914,0.07248 -0.0315,0.127362 -0.468052,0.12197 -0.436562,-0.0054 -0.583124,-0.06469 -0.325693,-0.131774 z m 5.485065,-0.103034 c -0.53897,-0.154842 -0.45323,-0.194915 0.46302,-0.216405 0.61847,-0.0145 1.12448,0.01927 1.12448,0.07506 0,0.231451 -0.97247,0.318036 -1.5875,0.141345 z m 6.30039,0.105648 c 0.191,-0.07643 0.4192,-0.06703 0.50712,0.02089 0.0879,0.08792 -0.0683,0.150453 -0.34726,0.138964 -0.30823,-0.0127 -0.37092,-0.07539 -0.15986,-0.159852 z"
         id="path5" /><path
         style="fill:#69ac3d"
         d="m 19.579167,191.45844 c 0,-0.0549 0.208359,-0.2633 0.46302,-0.46302 0.419644,-0.32911 0.429003,-0.31975 0.0999,0.0999 -0.345643,0.44073 -0.562915,0.58089 -0.562915,0.36313 z M 37.30625,177.7001 c 0,-0.0549 0.208359,-0.2633 0.463021,-0.46302 0.419644,-0.3291 0.429002,-0.31975 0.09989,0.0999 -0.345644,0.44073 -0.562916,0.58089 -0.562916,0.36312 z"
         id="path4" /><path
         style="fill:#45ab54"
         d="m 101.4066,244.55623 c 0.25743,-0.0671 0.61462,-0.0627 0.79375,0.01 0.17913,0.0725 -0.0315,0.12736 -0.46806,0.12197 -0.43656,-0.005 -0.58312,-0.0647 -0.32569,-0.13177 z m 8.20208,0 c 0.25743,-0.0671 0.61462,-0.0627 0.79375,0.01 0.17913,0.0725 -0.0315,0.12736 -0.46806,0.12197 -0.43656,-0.005 -0.58312,-0.0647 -0.32569,-0.13177 z m 10.19796,-0.79114 c 0.191,-0.0764 0.4192,-0.067 0.50712,0.0209 0.0879,0.0879 -0.0683,0.15045 -0.34727,0.13896 -0.30822,-0.0127 -0.37092,-0.0754 -0.15985,-0.15985 z M 34.362084,213.32031 c -0.329107,-0.41964 -0.319749,-0.429 0.09989,-0.0999 0.254661,0.19972 0.463021,0.40808 0.463021,0.46302 0,0.21776 -0.217272,0.0776 -0.562916,-0.36313 z m 68.891566,-6.07649 c 0.40018,-0.0606 1.05502,-0.0606 1.4552,0 0.40019,0.0606 0.0728,0.11023 -0.7276,0.11023 -0.80036,0 -1.12779,-0.0496 -0.7276,-0.11023 z m 4.23333,0 c 0.40018,-0.0606 1.05503,-0.0606 1.45521,0 0.40018,0.0606 0.0728,0.11023 -0.72761,0.11023 -0.80036,0 -1.12778,-0.0496 -0.7276,-0.11023 z m -86.05573,-17.1083 c 0,-0.0549 0.208359,-0.2633 0.463021,-0.46302 0.419644,-0.32911 0.429002,-0.31975 0.0999,0.0999 -0.345644,0.44072 -0.562916,0.58088 -0.562916,0.36312 z m 17.727083,-13.75833 c 0,-0.0549 0.20836,-0.2633 0.463021,-0.46302 0.419644,-0.32911 0.429002,-0.31975 0.0999,0.0999 -0.345644,0.44073 -0.562916,0.58089 -0.562916,0.36313 z"
         id="path3" /><path
         style="fill:#32a651"
         d="m 102.27017,244.52781 c -0.0571,-0.0571 -1.39217,-0.15143 -2.966722,-0.20952 -1.574553,-0.0581 -3.279542,-0.16854 -3.788865,-0.24544 -0.509323,-0.0769 -1.521354,-0.19752 -2.248958,-0.26803 -1.274416,-0.12351 -1.941376,-0.22847 -3.50502,-0.55158 -0.400572,-0.0828 -1.024298,-0.15024 -1.386056,-0.14993 -0.361759,3.1e-4 -0.876295,-0.1164 -1.143413,-0.25936 -0.267119,-0.14295 -0.923634,-0.30838 -1.458924,-0.36762 -0.951683,-0.10531 -1.8996,-0.28169 -2.163879,-0.40264 -0.07276,-0.0333 -0.251354,-0.0882 -0.396875,-0.12201 -0.145521,-0.0338 -0.324114,-0.0851 -0.396875,-0.11404 -0.07276,-0.0289 -0.370416,-0.0941 -0.661458,-0.14487 -0.954855,-0.16655 -1.318319,-0.27249 -1.653646,-0.48197 -0.181901,-0.11364 -0.330729,-0.14179 -0.330729,-0.0626 0,0.0792 -0.582325,-0.0855 -1.294056,-0.36602 -0.711731,-0.28054 -1.363697,-0.44043 -1.448815,-0.35531 -0.08512,0.0851 -0.354528,-0.011 -0.598692,-0.21368 -0.244164,-0.20263 -0.485166,-0.33866 -0.535561,-0.30228 -0.05039,0.0364 -0.121392,0.0573 -0.157772,0.0465 -0.03638,-0.0108 -0.354458,-0.0727 -0.706838,-0.13756 -0.352381,-0.0648 -0.780055,-0.23355 -0.950386,-0.37491 -0.170331,-0.14137 -0.388035,-0.17868 -0.483787,-0.0829 -0.09575,0.0958 -0.174093,0.0282 -0.174093,-0.1502 0,-0.17837 -0.1157,-0.25279 -0.25711,-0.1654 -0.141411,0.0874 -0.558129,-0.0383 -0.926042,-0.2794 -0.367912,-0.24106 -0.668931,-0.35049 -0.668931,-0.24318 0,0.10732 -0.178594,0.0469 -0.396875,-0.13426 -0.218282,-0.18115 -0.396875,-0.25108 -0.396875,-0.15538 0,0.0957 -0.267891,0.0252 -0.595313,-0.15666 -0.327422,-0.18187 -0.654844,-0.3391 -0.727604,-0.34942 -0.07276,-0.0103 -0.400182,-0.16754 -0.727604,-0.34941 -0.327422,-0.18186 -0.595313,-0.26388 -0.595313,-0.18227 0,0.0816 -0.386953,-0.0565 -0.859896,-0.30698 -0.472942,-0.25046 -1.02657,-0.48372 -1.230284,-0.51837 -0.203714,-0.0346 -0.45515,-0.20014 -0.558748,-0.36776 -0.103598,-0.16763 -0.264021,-0.29528 -0.356496,-0.28367 -0.313307,0.0393 -6.385929,-2.9671 -6.58167,-3.25845 -0.114294,-0.17012 -0.197725,-0.18032 -0.202489,-0.0247 -0.0053,0.17184 -0.07624,0.16996 -0.202489,-0.005 -0.106912,-0.14848 -0.492042,-0.41551 -0.855844,-0.59339 -0.837494,-0.4095 -1.596031,-0.89576 -2.058246,-1.31945 -0.198441,-0.1819 -0.530891,-0.33073 -0.738778,-0.33073 -0.207887,0 -0.377976,-0.10518 -0.377976,-0.23372 0,-0.12855 -0.20836,-0.30527 -0.463021,-0.39271 -0.79905,-0.27436 -2.553441,-1.4115 -2.657003,-1.72218 -0.05449,-0.16347 -0.267746,-0.29722 -0.4739,-0.29722 -0.206155,0 -0.374826,-0.11907 -0.374826,-0.26459 0,-0.14552 -0.161208,-0.26458 -0.35824,-0.26458 -0.197032,0 -0.679417,-0.29766 -1.071965,-0.66146 -0.392549,-0.3638 -0.813916,-0.66146 -0.93637,-0.66146 -0.122454,0 -0.291177,-0.17859 -0.374939,-0.39687 -0.08376,-0.21828 -0.30486,-0.39745 -0.491328,-0.39814 -0.186469,-7e-4 -0.78595,-0.41174 -1.33218,-0.91343 -0.546231,-0.50169 -1.177381,-1.01527 -1.402556,-1.14129 -1.692234,-0.94702 -12.773997,-12.0635 -13.725286,-13.76829 -0.137372,-0.24618 -0.584156,-0.80479 -0.992853,-1.24135 -0.408696,-0.43656 -0.743636,-0.87454 -0.744309,-0.97329 -6.74e-4,-0.0987 -0.174801,-0.35312 -0.386949,-0.56526 -1.081093,-1.0811 -7.287192,-10.53552 -7.287192,-11.10137 0,-0.0705 -0.416719,-0.82029 -0.926042,-1.66611 -0.509323,-0.84581 -0.926041,-1.61098 -0.926041,-1.70038 0,-0.0894 1.458515,-1.30637 3.241145,-2.70439 3.541672,-2.77754 11.498949,-8.94212 12.903538,-9.99649 0.484641,-0.36381 1.783083,-1.37678 2.885428,-2.25106 1.102345,-0.87427 2.315464,-1.82677 2.695821,-2.11666 0.380356,-0.28989 1.918785,-1.47958 3.41873,-2.64374 5.266877,-4.08783 5.944752,-4.57914 6.146214,-4.45463 0.111745,0.0691 0.134672,0.2364 0.05095,0.37187 -0.08372,0.13546 -0.02613,0.2463 0.127976,0.2463 0.154109,0 0.266099,0.0893 0.248866,0.19844 -0.01723,0.10914 -0.0081,0.25797 0.02024,0.33073 0.02837,0.0728 0.0897,0.32864 0.136295,0.56862 0.0466,0.23998 0.384769,1.03372 0.751495,1.76385 0.366726,0.73014 0.597306,1.39699 0.512398,1.4819 -0.08491,0.0849 -0.01547,0.15438 0.154303,0.15438 0.169775,0 0.278915,0.0955 0.242535,0.21224 -0.102777,0.32979 1.185737,2.96276 1.449905,2.96276 0.129234,0 0.161386,0.11906 0.07145,0.26458 -0.08994,0.14552 -0.04545,0.26458 0.09885,0.26458 0.144303,0 0.34243,0.25225 0.440282,0.56056 0.09785,0.3083 0.512218,1.05083 0.920814,1.65007 0.408596,0.59923 0.68672,1.18042 0.618052,1.29153 -0.06867,0.1111 -0.0043,0.20201 0.142935,0.20201 0.147282,0 0.465531,0.41672 0.70722,0.92604 0.24169,0.50932 0.544932,0.92604 0.673872,0.92604 0.12894,0 0.234437,0.12426 0.234437,0.27613 0,0.15188 0.297656,0.59714 0.661458,0.98949 0.363802,0.39234 0.661458,0.80386 0.661458,0.91449 0,0.11063 0.183635,0.4095 0.408078,0.66416 1.811411,2.0553 2.640299,2.93589 5.167789,5.49011 1.583977,1.60073 3.714615,3.56526 4.73475,4.36562 1.020135,0.80037 1.856012,1.55153 1.857504,1.66926 0.0015,0.11773 0.122616,0.13995 0.269165,0.0494 0.146548,-0.0906 0.33788,0.0215 0.425182,0.24897 0.0873,0.2275 0.324586,0.41364 0.527298,0.41364 0.202712,0 0.368568,0.11907 0.368568,0.26459 0,0.14552 0.121817,0.26458 0.270704,0.26458 0.148888,0 1.131153,0.56555 2.182813,1.25677 1.051659,0.69122 3.400389,1.94656 5.219399,2.78963 1.819011,0.84307 3.644363,1.70627 4.056338,1.91823 0.411975,0.21195 0.90345,0.38537 1.092167,0.38537 0.188717,0 0.804146,0.19989 1.367621,0.4442 0.563474,0.24431 1.143562,0.4643 1.289083,0.48886 0.14552,0.0246 0.324114,0.0726 0.396875,0.10673 0.07276,0.0341 0.486511,0.11946 0.919447,0.18962 0.432936,0.0702 0.938951,0.25354 1.124479,0.40751 0.185528,0.15398 0.337324,0.19127 0.337324,0.0829 0,-0.1084 0.148828,-0.0837 0.330729,0.0548 0.181901,0.13854 0.796746,0.27723 1.366322,0.30819 0.569577,0.031 1.134676,0.11755 1.255777,0.19239 0.296835,0.18345 1.216414,0.37765 2.338838,0.49393 0.509323,0.0528 1.342761,0.1685 1.852084,0.25721 2.903922,0.50579 11.878962,0.50854 14.295352,0.004 0.35948,-0.075 1.24892,-0.19187 1.97652,-0.25971 1.43586,-0.13387 1.95804,-0.21954 3.96875,-0.65112 0.72761,-0.15617 1.50151,-0.31988 1.71979,-0.3638 0.21828,-0.0439 0.9322,-0.23135 1.58647,-0.41652 0.65428,-0.18517 1.42818,-0.39069 1.71979,-0.45671 0.97122,-0.21986 1.32336,-0.31271 1.3901,-0.3665 0.0364,-0.0293 0.15544,-0.0785 0.26458,-0.10924 0.10914,-0.0308 0.3975,-0.14411 0.6408,-0.25189 0.2433,-0.10778 0.66001,-0.23722 0.92604,-0.28764 0.26602,-0.0504 0.54321,-0.11488 0.61597,-0.14324 0.0728,-0.0284 0.22159,-0.0375 0.33073,-0.0202 0.10914,0.0172 0.19844,-0.0877 0.19844,-0.23325 0,-0.14552 0.12368,-0.26458 0.27485,-0.26458 0.75608,0 7.07062,-3.20612 9.5415,-4.84456 l 0.68823,-0.45637 11.49621,8.93432 c 6.32292,4.91387 13.17698,10.23454 15.23126,11.82369 l 3.73506,2.88937 -0.67344,0.52973 c -0.37039,0.29134 -0.94104,0.77706 -1.26811,1.07937 -0.32707,0.30231 -1.03832,0.90685 -1.58055,1.34341 -0.54224,0.43656 -1.14396,0.94258 -1.33717,1.12448 -0.19321,0.1819 -0.41933,0.33073 -0.50248,0.33073 -0.0832,0 -0.38078,0.20836 -0.6614,0.46302 -0.86409,0.78418 -1.31255,1.12448 -1.4819,1.12448 -0.0893,0 -0.32832,0.14882 -0.53115,0.33073 -0.87553,0.78515 -1.17481,0.99218 -1.43433,0.99218 -0.15166,0 -0.27575,0.11907 -0.27575,0.26459 0,0.14552 -0.16867,0.26458 -0.37482,0.26458 -0.20616,0 -0.41452,0.0932 -0.46302,0.20713 -0.11334,0.26616 -3.66007,2.49514 -3.66007,2.3002 0,-0.0807 -0.25616,0.0919 -0.56924,0.38363 -0.31308,0.29168 -0.67027,0.46788 -0.79375,0.39157 -0.12348,-0.0763 -0.22451,-0.0306 -0.22451,0.10157 0,0.13217 -0.53578,0.46127 -1.19063,0.73131 -0.65484,0.27005 -1.19062,0.59268 -1.19062,0.71695 0,0.12427 -0.11907,0.15237 -0.26459,0.0624 -0.14552,-0.0899 -0.26458,-0.0304 -0.26458,0.13229 0,0.1627 -0.10946,0.22816 -0.24325,0.14548 -0.13379,-0.0827 -0.43145,0.0379 -0.66146,0.26786 -0.23001,0.23002 -0.41821,0.34144 -0.41821,0.2476 0,-0.0938 -0.65484,0.20406 -1.45521,0.66198 -0.80036,0.45792 -1.4552,0.76126 -1.4552,0.67408 0,-0.0872 -0.35594,0.0256 -0.79098,0.25053 -0.43504,0.22496 -0.82723,0.37685 -0.87153,0.33752 -0.0443,-0.0393 -0.40274,0.1396 -0.79653,0.39761 -0.39378,0.25802 -0.71596,0.39316 -0.71596,0.3003 0,-0.0928 -0.29766,0.0262 -0.66146,0.26459 -0.3638,0.23837 -0.66146,0.35655 -0.66146,0.26261 0,-0.0939 -0.17859,-0.0226 -0.39688,0.15859 -0.21828,0.18116 -0.39687,0.24158 -0.39687,0.13426 0,-0.10731 -0.29368,-0.003 -0.65263,0.2325 -0.35894,0.23519 -0.92449,0.47816 -1.25677,0.53994 -0.33228,0.0618 -0.63391,0.13604 -0.67029,0.16505 -0.0364,0.029 -0.18521,0.0825 -0.33073,0.11888 -0.14552,0.0364 -0.35388,0.0951 -0.46302,0.13055 -0.10914,0.0354 -0.29256,0.0487 -0.40759,0.0295 -0.11504,-0.0192 -0.47222,0.11498 -0.79375,0.29817 -0.32153,0.18319 -0.70366,0.34966 -0.84918,0.36993 -0.14552,0.0203 -0.35388,0.0655 -0.46302,0.10044 -0.10914,0.035 -0.3175,0.0934 -0.46302,0.12974 -0.14552,0.0364 -0.29435,0.0901 -0.33073,0.11946 -0.0865,0.0697 -0.98392,0.28081 -1.65365,0.38899 -0.29104,0.047 -0.52916,0.10978 -0.52916,0.13949 0,0.0625 -0.82032,0.27247 -1.5875,0.40629 -0.29104,0.0508 -0.5887,0.11595 -0.66146,0.14487 -0.0728,0.0289 -0.25135,0.0802 -0.39688,0.11404 -0.14552,0.0338 -0.32411,0.0884 -0.39687,0.12143 -0.1785,0.0809 -1.30429,0.29476 -2.11667,0.40209 -0.3638,0.0481 -0.66146,0.11088 -0.66146,0.1396 0,0.0935 -2.49483,0.48966 -3.57187,0.56724 -0.21828,0.0157 -0.93266,0.14296 -1.5875,0.28275 -0.65484,0.13979 -1.72641,0.29485 -2.38125,0.34458 -0.65484,0.0497 -1.72641,0.16502 -2.38125,0.25621 -2.19291,0.30539 -14.18333,0.68997 -14.41108,0.46223 z"
         id="path2" /><path
         style="fill:#2fa54e"
         d="m 104.70295,244.54862 c 0.4697,-0.0584 1.30314,-0.0594 1.85209,-0.002 0.54894,0.0573 0.16465,0.1051 -0.854,0.10627 -1.01864,10e-4 -1.46778,-0.0457 -0.99809,-0.10414 z m -5.418054,-0.256 c 0.254661,-0.0666 0.67138,-0.0666 0.926044,0 0.25466,0.0666 0.0463,0.121 -0.463023,0.121 -0.509323,0 -0.717683,-0.0545 -0.463021,-0.121 z m 12.435414,0 c 0.25466,-0.0666 0.67138,-0.0666 0.92604,0 0.25467,0.0666 0.0463,0.121 -0.46302,0.121 -0.50932,0 -0.71768,-0.0545 -0.46302,-0.121 z m -16.255336,-0.26294 c 0.190996,-0.0764 0.419199,-0.067 0.507118,0.0209 0.08792,0.0879 -0.06835,0.15046 -0.347266,0.13897 -0.308224,-0.0127 -0.370919,-0.0754 -0.159852,-0.15985 z m 20.885546,0.006 c 0.1819,-0.0734 0.47956,-0.0734 0.66146,0 0.1819,0.0734 0.0331,0.13345 -0.33073,0.13345 -0.3638,0 -0.51263,-0.0601 -0.33073,-0.13345 z m -22.73763,-0.2701 c 0.190997,-0.0764 0.4192,-0.067 0.507119,0.0209 0.08792,0.0879 -0.06835,0.15045 -0.347266,0.13896 -0.308225,-0.0127 -0.370919,-0.0754 -0.159853,-0.15985 z m 24.58971,0.006 c 0.18191,-0.0734 0.47956,-0.0734 0.66146,0 0.1819,0.0734 0.0331,0.13346 -0.33073,0.13346 -0.3638,0 -0.51263,-0.0601 -0.33073,-0.13346 z m 2.92696,-0.27009 c 0.19099,-0.0764 0.4192,-0.067 0.50712,0.0209 0.0879,0.0879 -0.0684,0.15045 -0.34727,0.13896 -0.30822,-0.0127 -0.37092,-0.0754 -0.15985,-0.15985 z m 1.32291,-0.26458 c 0.191,-0.0764 0.4192,-0.067 0.50712,0.0209 0.0879,0.0879 -0.0684,0.15046 -0.34726,0.13897 -0.30823,-0.0127 -0.37092,-0.0754 -0.15986,-0.15985 z"
         id="path1" /></g></g></svg>
