<?xml version="1.0" encoding="UTF-8" standalone="no"?>
<!-- Created with Inkscape (http://www.inkscape.org/) -->

<svg
   width="20cm"
   height="3cm"
   viewBox="0 0 200 30"
   version="1.1"
   id="svg1"
   xml:space="preserve"
   inkscape:version="1.4 (86a8ad7, 2024-10-11)"
   sodipodi:docname="logo.svg"
   inkscape:export-filename="TS_LOGO WEB.png"
   inkscape:export-xdpi="96"
   inkscape:export-ydpi="96"
   xmlns:inkscape="http://www.inkscape.org/namespaces/inkscape"
   xmlns:sodipodi="http://sodipodi.sourceforge.net/DTD/sodipodi-0.dtd"
   xmlns="http://www.w3.org/2000/svg"
   xmlns:svg="http://www.w3.org/2000/svg"><sodipodi:namedview
     id="namedview1"
     pagecolor="#ffffff"
     bordercolor="#000000"
     borderopacity="0.25"
     inkscape:showpageshadow="2"
     inkscape:pageopacity="0.0"
     inkscape:pagecheckerboard="0"
     inkscape:deskcolor="#d1d1d1"
     inkscape:document-units="mm"
     showguides="true"
     inkscape:zoom="1.4142136"
     inkscape:cx="494.26763"
     inkscape:cy="133.28962"
     inkscape:window-width="1920"
     inkscape:window-height="1027"
     inkscape:window-x="-8"
     inkscape:window-y="-8"
     inkscape:window-maximized="1"
     inkscape:current-layer="g2"><sodipodi:guide
       position="8.4423759,13.770058"
       orientation="1,0"
       id="guide1"
       inkscape:locked="false" /></sodipodi:namedview><defs
     id="defs1" /><g
     inkscape:label="Layer 1"
     inkscape:groupmode="layer"
     id="layer1"><g
       id="g2"
       transform="translate(4.4901281)"
       style="fill:#ffffff"><path
         id="text1"
         style="font-size:36.1667px;line-height:0.9;font-family:Amandine;-inkscape-font-specification:'Amandine, Normal';text-align:end;letter-spacing:6.50999px;word-spacing:0.00542499px;text-anchor:end;opacity:1;fill:#ffe3e3;stroke-width:4.10078;stroke-linecap:round;stroke-miterlimit:3;stroke-dasharray:123.598;stroke-dashoffset:56.3604;paint-order:markers fill stroke;fill-opacity:1"
         d="M 0.09043376,1.1844238 V 1.6185059 H 8.5173096 V 5.422408 C 6.049306,6.0042633 4.5724673,7.7323829 4.6958374,9.9735514 4.8356799,12.513961 6.5325653,13.411036 8.5173096,13.969173 v 9.22476 C 6.0689484,22.728512 4.4715767,20.920295 4.3356527,18.45107 l -0.2826701,0.01602 c 0.147617,2.681642 1.8517764,4.574175 4.464327,5.025533 v 5.323189 h 3.0018844 v -5.421891 c 2.727446,-0.660982 4.717013,-2.922073 4.524788,-6.414079 -0.161522,-2.934234 -2.253576,-3.839346 -4.524788,-4.419885 V 5.6146444 c 1.97104,0.3901796 2.999394,1.6886437 3.06958,2.9636434 0.03501,0.6359746 -0.0816,1.0910365 -0.275436,1.4324702 l 0.243396,0.128675 C 14.750573,9.7979986 14.909046,9.2458687 14.871444,8.5627848 14.7915,7.1105101 13.609823,5.7036861 11.519194,5.3149211 V 1.6185059 h 8.390702 V 1.1844238 Z M 8.5173096,5.6993937 V 11.820984 C 6.9190122,11.338554 5.6749894,10.600985 5.5779541,8.8382202 5.4963098,7.3550513 6.6632654,6.1582654 8.5173096,5.6993937 Z m 3.0018844,9.0082353 c 1.885139,0.521493 3.456746,1.325482 3.58066,3.576526 0.147252,2.675023 -1.487963,4.259351 -3.58066,4.808492 z" /><text
         xml:space="preserve"
         style="font-size:13.2841px;line-height:0.9;font-family:Amandine;-inkscape-font-specification:'Amandine, Normal';text-align:start;letter-spacing:2.39114px;word-spacing:0.00199262px;text-anchor:start;fill:#ffe3e3;stroke-width:1.50623;stroke-linecap:round;stroke-miterlimit:3;stroke-dasharray:45.3977;stroke-dashoffset:20.7013;paint-order:markers fill stroke;fill-opacity:1"
         x="23.558666"
         y="19.157343"
         id="text2"><tspan
           sodipodi:role="line"
           id="tspan1"
           style="text-align:start;text-anchor:start;fill:#ffe3e3;stroke-width:1.50623;fill-opacity:1"
           x="23.558666"
           y="19.157343">T E X S A V E R I O</tspan></text></g></g></svg>
